<svg xml:space="preserve" style="enable-background:new 0 0 1024 1024;" viewBox="0 0 1024 1024" y="0px" x="0px" xmlns:xlink="http://www.w3.org/1999/xlink" xmlns="http://www.w3.org/2000/svg" id="图层_1" version="1.1">
<style type="text/css">
	.st0{fill:url(#SVGID_1_);}
	.st1{fill:url(#SVGID_2_);}
	.st2{fill:url(#SVGID_3_);}
	.st3{clip-path:url(#SVGID_5_);fill:url(#SVGID_6_);}
	.st4{fill:#FFFFFF;}
	.st5{fill:#21B9FF;}
	.st6{fill:none;}
	.st7{fill:url(#SVGID_7_);}
	.st8{fill:url(#SVGID_8_);}
	.st9{fill:url(#SVGID_9_);}
	.st10{fill:url(#SVGID_10_);}
	.st11{fill:url(#SVGID_11_);}
	.st12{fill:url(#SVGID_12_);}
	.st13{fill:url(#SVGID_13_);}
	.st14{fill:url(#SVGID_14_);}
	.st15{fill:url(#SVGID_15_);}
	.st16{fill:url(#SVGID_16_);}
	.st17{fill:url(#SVGID_17_);}
	.st18{fill:url(#SVGID_18_);}
	.st19{fill:url(#SVGID_19_);}
	.st20{fill:url(#SVGID_20_);}
	.st21{fill:url(#SVGID_21_);}
	.st22{fill:url(#SVGID_22_);}
	.st23{fill:url(#SVGID_23_);}
</style>
<g>
	<linearGradient y2="506" x2="954.7532" y1="506" x1="80.5501" gradientUnits="userSpaceOnUse" id="SVGID_1_">
		<stop style="stop-color:#DAE2EF" offset="0"></stop>
		<stop style="stop-color:#F2F2F2" offset="1"></stop>
	</linearGradient>
	<circle r="437.1" cy="506" cx="517.7" class="st0"></circle>
	<linearGradient y2="506" x2="954.7532" y1="506" x1="80.5501" gradientUnits="userSpaceOnUse" id="SVGID_2_">
		<stop style="stop-color:#DAE2EF" offset="0"></stop>
		<stop style="stop-color:#F2F2F2" offset="1"></stop>
	</linearGradient>
	<circle r="437.1" cy="506" cx="517.7" class="st1"></circle>
	<linearGradient y2="850.3139" x2="875.1547" y1="850.3139" x1="160.1486" gradientUnits="userSpaceOnUse" id="SVGID_3_">
		<stop style="stop-color:#CFDEE5" offset="0"></stop>
		<stop style="stop-color:#C7D3DD" offset="1"></stop>
	</linearGradient>
	<path d="M160.1,757.5c79.1,112.2,209.7,185.6,357.5,185.6S796,869.8,875.2,757.5H160.1z" class="st2"></path>
	<g>
		<defs>
			<circle r="437.1" cy="506" cx="517.7" id="SVGID_4_"></circle>
		</defs>
		<clipPath id="SVGID_5_">
			<use style="overflow:visible;" xlink:href="#SVGID_4_"></use>
		</clipPath>
		<linearGradient y2="713.6117" x2="977.8129" y1="713.6117" x1="532.6721" gradientUnits="userSpaceOnUse" id="SVGID_6_">
			<stop style="stop-color:#B7C5CE" offset="0"></stop>
			<stop style="stop-color:#B6C4CE" offset="1"></stop>
		</linearGradient>
		<path d="M963.2,470.9c0,0-9.4,13.6-45.1,32.5S803.9,580.9,807,651.2s-160.4,69.2-206.5,164.6s-32.5,116.4-62.9,130
			s86,15.7,157.2-3.1c71.3-18.9,225.4-149.9,256.8-202.3C983.1,687.9,985.2,530.6,963.2,470.9z" class="st3"></path>
	</g>
	<g>
		<path d="M945.4,507.6c-1.7,11.9-4.3,23.8-7.2,35.5c-2.9,11.7-6.2,23.4-9.8,34.9c-7.3,23-16,45.6-26.1,67.6
			c-20,44-45.7,85.6-76.6,122.8c-31,37.1-67.5,69.8-108.5,95.7l-3.8,2.4l-3.9,2.3c-2.6,1.6-5.2,3.1-7.8,4.7
			c-5.3,2.9-10.5,6-15.9,8.8c-10.6,5.7-21.6,10.8-32.7,15.7c-22.2,9.5-45.1,17.4-68.5,23.6c23.1-6.8,45.9-15.1,67.8-25
			c10.9-5.1,21.8-10.2,32.3-16.1c5.3-2.8,10.5-5.9,15.7-8.9c2.6-1.5,5.1-3.2,7.7-4.7l3.8-2.4l3.8-2.5l7.5-5l7.4-5.2
			c2.5-1.7,4.9-3.5,7.3-5.3c2.4-1.8,4.9-3.5,7.2-5.4c9.6-7.3,18.8-15,27.8-23c9-8,17.6-16.4,26-25c8.4-8.7,16.3-17.7,24-26.9
			c7.8-9.2,15.1-18.7,22.2-28.5c7.1-9.7,13.8-19.7,20.2-29.9c12.8-20.4,24.2-41.7,34.5-63.4c10.2-21.8,19.2-44.2,26.8-67.1
			c3.8-11.4,7.3-23,10.5-34.6c1.6-5.8,3-11.7,4.4-17.6C943.1,519.4,944.4,513.5,945.4,507.6z" class="st4"></path>
	</g>
	<g>
		<path d="M898.7,648.2c-1.7-4-3-8.1-4.2-12.2c-1.2-4.1-2.2-8.3-3-12.5c-1.6-8.4-2.5-17-2.4-25.6c0-2.1,0.2-4.3,0.3-6.4
			c0.1-2.1,0.3-4.3,0.4-6.4c0.3-4.3,0.7-8.5,1.1-12.8c0.9-8.5,1.9-17,3.4-25.4c-1.3,8.4-2.2,17-3,25.5c-0.7,8.5-1.3,17.1-1.4,25.6
			c0,8.5,1,17,2.7,25.3c1.8,8.3,4.2,16.5,7.5,24.3L898.7,648.2z" class="st4"></path>
	</g>
	<g>
		<path d="M858.3,719.9c-2.3-4.9-4.3-9.8-6.1-14.9c-1.9-5-3.5-10.1-4.9-15.3c-1.4-5.2-2.6-10.4-3.3-15.7
			c-0.4-2.7-0.6-5.3-0.7-8c-0.1-2.7,0.1-5.4,0.2-8c0.4-10.7,0.4-21.3,0.3-32c-0.1-10.7-0.3-21.3-0.6-32c0.4,10.7,0.8,21.3,1,32
			c0.2,10.7,0.3,21.3,0.1,32c-0.8,10.7,1.3,21.2,4.2,31.4c1.5,5.1,3.2,10.1,5.1,15.1c1.9,5,4,9.9,6.3,14.7L858.3,719.9z" class="st4"></path>
	</g>
	<g>
		<path d="M814,777.8c-0.9-5.7-1.7-11.3-2.3-17c-0.6-5.7-1.1-11.4-1.5-17.1c-0.3-5.7-0.5-11.4-0.5-17.2
			c0.1-5.7,0.4-11.4,1-17.1c-0.5,5.7-0.7,11.4-0.6,17.1c0.1,5.7,0.4,11.4,0.9,17.1c0.5,5.7,1.1,11.4,1.9,17
			c0.8,5.7,1.6,11.3,2.7,16.9L814,777.8z" class="st4"></path>
	</g>
	<g>
		<path d="M769.4,822.1c-1-8.2-1.9-16.4-2.7-24.6c-0.8-8.2-1.5-16.4-2-24.7c-0.2-4.1-0.4-8.2-0.3-12.4
			c0-2.1,0.1-4.1,0.4-6.2c0.3-2,0.6-4.1,0.8-6.1c0.9-8.2,1.4-16.4,1.6-24.7c0,8.2-0.3,16.5-1.2,24.7c-0.2,2.1-0.5,4.1-0.7,6.1
			c-0.2,2-0.3,4.1-0.3,6.1c0,4.1,0.3,8.2,0.5,12.3c0.6,8.2,1.4,16.4,2.4,24.6c0.9,8.2,2,16.4,3.1,24.5L769.4,822.1z" class="st4"></path>
	</g>
	<g>
		<path d="M712.7,865c-1.2-9.3-2.1-18.6-2.4-28c-0.1-4.7-0.1-9.4,0.2-14.1c0.2-2.3,0.5-4.7,0.9-7
			c0.2-1.2,0.5-2.3,0.8-3.4l0.5-1.7l0.4-1.7c0.9-4.5,1.4-9.2,1.8-13.8c0.3-4.6,0.5-9.3,0.6-14c0.2-9.3,0.1-18.7-0.2-28
			c0.5,9.3,0.7,18.7,0.6,28c0,4.7-0.2,9.3-0.4,14c-0.3,4.7-0.7,9.3-1.6,14c-2.8,9-2.8,18.4-2.4,27.6c0.4,9.3,1.4,18.6,2.8,27.8
			L712.7,865z" class="st4"></path>
	</g>
	<g>
		<path d="M649.5,896.5c-0.2-10,0-19.9,0.4-29.8c0.3-5,0.6-9.9,1.1-14.9c0.6-4.9,1.2-9.9,2.5-14.7
			c0.3-1.2,0.7-2.4,1.1-3.6c0.4-1.2,1-2.4,1.4-3.5c1-2.2,1.6-4.6,2-7.1c0.8-4.9,1-9.8,1-14.8c-0.2-9.9-1.3-19.8-3-29.6
			c1.8,9.8,3.1,19.6,3.4,29.6c0.1,5,0,10-0.8,14.9c-0.4,2.5-1,4.9-2,7.2c-0.5,1.2-1,2.2-1.4,3.4c-0.4,1.2-0.7,2.3-1,3.5
			c-1.2,4.8-1.8,9.7-2.3,14.6c-0.5,4.9-0.8,9.9-0.9,14.8c-0.4,9.9-0.4,19.8,0,29.7L649.5,896.5z" class="st4"></path>
	</g>
	<g>
		<path d="M914.7,613.6c2.4-0.6,4.9-1.3,7.3-2.1c2.4-0.8,4.8-1.7,7.1-2.8c2.3-1.1,4.6-2.2,6.7-3.7
			c2.1-1.4,4.1-3.1,5.6-5.2c-1.4,2.2-3.3,3.9-5.4,5.5c-2,1.6-4.3,2.9-6.6,4c-2.3,1.2-4.7,2.2-7.1,3.2c-2.4,0.9-4.8,1.8-7.3,2.5
			L914.7,613.6z" class="st4"></path>
	</g>
	<g>
		<path d="M890.6,666.3c2.9-0.3,5.9-0.9,8.8-1.7c2.9-0.8,5.8-1.8,8.5-3.1c2.8-1.2,5.4-2.8,7.8-4.6
			c2.5-1.8,4.6-4,6.6-6.3c-1.9,2.4-3.9,4.7-6.3,6.6c-2.4,1.9-4.9,3.6-7.7,5c-2.7,1.4-5.6,2.6-8.5,3.5c-2.9,0.9-5.9,1.7-9,2.1
			L890.6,666.3z" class="st4"></path>
	</g>
	<g>
		<path d="M849.6,734.4c2.9-0.3,5.9-0.9,8.8-1.7c2.9-0.8,5.8-1.8,8.5-3.1c2.8-1.2,5.4-2.8,7.8-4.6
			c2.5-1.8,4.6-4,6.6-6.3c-1.9,2.4-3.9,4.7-6.3,6.6c-2.4,1.9-4.9,3.6-7.7,5c-2.7,1.4-5.6,2.6-8.5,3.5c-2.9,0.9-5.9,1.7-9,2.1
			L849.6,734.4z" class="st4"></path>
	</g>
	<g>
		<path d="M807.2,785.6c3.4,0.3,7,0.3,10.5,0.1c3.5-0.2,7-0.6,10.4-1.4c3.4-0.8,6.8-1.9,9.9-3.5
			c1.6-0.8,3.1-1.7,4.4-2.8c1.4-1.1,2.6-2.3,3.8-3.7c-1.1,1.4-2.3,2.7-3.6,3.9c-1.4,1.2-2.8,2.1-4.4,3c-3.1,1.7-6.5,3-9.9,3.9
			c-3.4,0.9-7,1.5-10.5,1.8c-3.6,0.3-7.1,0.5-10.7,0.3L807.2,785.6z" class="st4"></path>
	</g>
	<g>
		<path d="M761.2,829.9c3.3,1,6.8,1.7,10.2,2.2c3.5,0.5,7,0.7,10.5,0.7c3.5-0.1,7-0.5,10.4-1.5c1.7-0.5,3.3-1.1,4.9-1.9
			c1.6-0.8,3-1.8,4.4-2.9c-1.3,1.2-2.8,2.2-4.3,3.1c-1.6,0.9-3.2,1.5-4.9,2.1c-3.4,1.1-6.9,1.7-10.5,1.9c-3.6,0.2-7.1,0.1-10.7-0.3
			c-3.5-0.4-7-0.9-10.5-1.8L761.2,829.9z" class="st4"></path>
	</g>
	<g>
		<path d="M703.7,871c2.8,2,6.1,3.5,9.4,4.5c3.4,1,6.9,1.6,10.5,1.5c0.9,0.1,1.8-0.1,2.7-0.1c0.9-0.1,1.8-0.1,2.7-0.3
			l2.6-0.5c0.9-0.2,1.7-0.5,2.6-0.7l1.3-0.4c0.4-0.1,0.8-0.3,1.3-0.5l2.5-1c1.6-0.7,3.2-1.6,4.8-2.4c-1.6,0.9-3.1,1.8-4.7,2.6
			l-2.5,1.1c-0.4,0.2-0.8,0.4-1.2,0.5l-1.3,0.4c-0.9,0.3-1.7,0.6-2.6,0.8l-2.7,0.6c-0.9,0.2-1.8,0.3-2.7,0.4
			c-0.9,0.1-1.8,0.2-2.7,0.2c-3.6,0.2-7.3-0.3-10.8-1.2c-3.5-0.9-6.9-2.3-10.1-4.4L703.7,871z" class="st4"></path>
	</g>
	<g>
		<g>
			<circle r="240.5" cy="589.8" cx="379.8" class="st4"></circle>
			<g>
				<path d="M611.1,443.6c2.2-1.6,4.3-3.4,6.3-5.4c21.6-21.6,21.6-56.6,0-78.1s-56.6-21.6-78.1,0c-2,2-3.8,4.1-5.4,6.3
					L611.1,443.6z" class="st4"></path>
				<path d="M148.6,443.6c-2.2-1.6-4.3-3.4-6.3-5.4c-21.6-21.6-21.6-56.6,0-78.1s56.6-21.6,78.1,0c2,2,3.8,4.1,5.4,6.3
					L148.6,443.6z" class="st4"></path>
			</g>
			<g>
				<path d="M518.3,806.9l-23.7,15.4c-1.2,0.8-1.5,2.3-0.7,3.5l15.1,23.3c5,7.7,15.3,9.9,23,4.9h0
					c7.7-5,9.9-15.3,4.9-23l-15.1-23.3C521,806.5,519.5,806.1,518.3,806.9z" class="st4"></path>
				<path d="M241.4,806.9l23.7,15.4c1.2,0.8,1.5,2.3,0.7,3.5l-15.1,23.3c-5,7.7-15.3,9.9-23,4.9h0
					c-7.7-5-9.9-15.3-4.9-23l15.1-23.3C238.7,806.5,240.2,806.1,241.4,806.9z" class="st4"></path>
			</g>
		</g>
		<path d="M501.9,709.8c-6.9,6.9-18,6.9-24.9,0l-111-111c-1.9-1.9-3.3-4.2-4.2-6.7c-0.7-1.9-1.1-3.9-1.1-5.9v-89.5
			c0-9.7,7.9-17.6,17.6-17.6c9.7,0,17.6,7.9,17.6,17.6V579l105.9,105.9C508.7,691.7,508.7,702.9,501.9,709.8z" class="st5"></path>
	</g>
	<circle r="437.1" cy="506" cx="517.7" class="st6"></circle>
	<linearGradient y2="390.4354" x2="699.7115" y1="390.4354" x1="628.9577" gradientUnits="userSpaceOnUse" id="SVGID_7_">
		<stop style="stop-color:#C7D3DD" offset="0"></stop>
		<stop style="stop-color:#B6C4CE" offset="1"></stop>
	</linearGradient>
	<polygon points="685.6,314.2 643.1,381.8 672.2,381.8 629,466.7 699.7,366.1 669.8,365.3" class="st7"></polygon>
	
		<linearGradient gradientTransform="matrix(0.8788 0.4772 -0.4772 0.8788 1352.1135 42.7007)" y2="675.8989" x2="-339.1145" y1="675.8989" x1="-409.8683" gradientUnits="userSpaceOnUse" id="SVGID_8_">
		<stop style="stop-color:#C7D3DD" offset="0"></stop>
		<stop style="stop-color:#B6C4CE" offset="1"></stop>
	</linearGradient>
	<polygon points="755.5,401.1 685.9,440.2 711.5,454.1 633,508.1 743.2,453.4 717.3,438.5" class="st8"></polygon>
	
		<linearGradient gradientTransform="matrix(0.8788 0.4772 -0.4772 0.8788 1352.1135 42.7007)" y2="521.0139" x2="-325.712" y1="521.0139" x1="-396.4658" gradientUnits="userSpaceOnUse" id="SVGID_9_">
		<stop style="stop-color:#C7D3DD" offset="0"></stop>
		<stop style="stop-color:#B6C4CE" offset="1"></stop>
	</linearGradient>
	<polygon points="841.2,271.4 771.6,310.5 797.2,324.4 718.7,378.4 828.9,323.7 803,308.8" class="st9"></polygon>
	<linearGradient y2="297.6692" x2="442.2462" y1="297.6692" x1="402.9385" gradientUnits="userSpaceOnUse" id="SVGID_10_">
		<stop style="stop-color:#C7D3DD" offset="0"></stop>
		<stop style="stop-color:#B6C4CE" offset="1"></stop>
	</linearGradient>
	<circle r="19.7" cy="297.7" cx="422.6" class="st10"></circle>
	<linearGradient y2="285.0908" x2="495.7046" y1="285.0908" x1="478.4092" gradientUnits="userSpaceOnUse" id="SVGID_11_">
		<stop style="stop-color:#C7D3DD" offset="0"></stop>
		<stop style="stop-color:#B6C4CE" offset="1"></stop>
	</linearGradient>
	<circle r="8.6" cy="285.1" cx="487.1" class="st11"></circle>
	<linearGradient y2="569.6785" x2="712.6831" y1="569.6785" x1="673.3754" gradientUnits="userSpaceOnUse" id="SVGID_12_">
		<stop style="stop-color:#C7D3DD" offset="0"></stop>
		<stop style="stop-color:#B6C4CE" offset="1"></stop>
	</linearGradient>
	<circle r="19.7" cy="569.7" cx="693" class="st12"></circle>
	<linearGradient y2="421.0954" x2="1024" y1="421.0954" x1="998.8431" gradientUnits="userSpaceOnUse" id="SVGID_13_">
		<stop style="stop-color:#C7D3DD" offset="0"></stop>
		<stop style="stop-color:#B6C4CE" offset="1"></stop>
	</linearGradient>
	<circle r="12.6" cy="421.1" cx="1011.4" class="st13"></circle>
	<linearGradient y2="472.9815" x2="49.1692" y1="472.9815" x1="2" gradientUnits="userSpaceOnUse" id="SVGID_14_">
		<stop style="stop-color:#C7D3DD" offset="0"></stop>
		<stop style="stop-color:#B6C4CE" offset="1"></stop>
	</linearGradient>
	<circle r="23.6" cy="473" cx="25.6" class="st14"></circle>
	<linearGradient y2="526.44" x2="75.8985" y1="526.44" x1="60.1754" gradientUnits="userSpaceOnUse" id="SVGID_15_">
		<stop style="stop-color:#C7D3DD" offset="0"></stop>
		<stop style="stop-color:#B6C4CE" offset="1"></stop>
	</linearGradient>
	<circle r="7.9" cy="526.4" cx="68" class="st15"></circle>
	<linearGradient y2="217.4815" x2="868.3416" y1="217.4815" x1="819.6" gradientUnits="userSpaceOnUse" id="SVGID_16_">
		<stop style="stop-color:#C7D3DD" offset="0"></stop>
		<stop style="stop-color:#B6C4CE" offset="1"></stop>
	</linearGradient>
	<circle r="24.4" cy="217.5" cx="844" class="st16"></circle>
	<linearGradient y2="197.8277" x2="588.4708" y1="197.8277" x1="569.6031" gradientUnits="userSpaceOnUse" id="SVGID_17_">
		<stop style="stop-color:#C7D3DD" offset="0"></stop>
		<stop style="stop-color:#B6C4CE" offset="1"></stop>
	</linearGradient>
	<circle r="9.4" cy="197.8" cx="579" class="st17"></circle>
	
		<linearGradient gradientTransform="matrix(0.9132 0.4075 -0.4075 0.9132 1072.8009 85.7061)" y2="525.4924" x2="-592.4434" y1="525.4924" x1="-710.432" gradientUnits="userSpaceOnUse" id="SVGID_18_">
		<stop style="stop-color:#C7D3DD" offset="0"></stop>
		<stop style="stop-color:#B6C4CE" offset="1"></stop>
	</linearGradient>
	<path d="M220.4,252.4c0,0,30.6,49.4,56.6,67s29,30.8,29,30.8S276.4,258.5,220.4,252.4z" class="st18"></path>
	
		<linearGradient gradientTransform="matrix(0.9665 -0.2568 0.2568 0.9665 -644.0245 173.7845)" y2="301.6953" x2="932.4308" y1="301.6953" x1="777.7456" gradientUnits="userSpaceOnUse" id="SVGID_19_">
		<stop style="stop-color:#C7D3DD" offset="0"></stop>
		<stop style="stop-color:#B6C4CE" offset="1"></stop>
	</linearGradient>
	<path d="M176.4,232.8c0,0,71.9,25.2,112.9,21.7c40.9-3.5,54.9,7.6,54.9,7.6S238.4,193,176.4,232.8z" class="st19"></path>
	
		<linearGradient gradientTransform="matrix(0.9665 -0.2568 0.2568 0.9665 -644.0245 173.7845)" y2="228.4274" x2="989.1284" y1="228.4274" x1="892.0151" gradientUnits="userSpaceOnUse" id="SVGID_20_">
		<stop style="stop-color:#C7D3DD" offset="0"></stop>
		<stop style="stop-color:#B6C4CE" offset="1"></stop>
	</linearGradient>
	<path d="M271.3,144.9c0,0,45.2,15.8,70.9,13.6s34.5,4.7,34.5,4.7S310.2,119.9,271.3,144.9z" class="st20"></path>
	
		<linearGradient gradientTransform="matrix(0.9784 0.2068 -0.2068 0.9784 510.1014 -45.3746)" y2="262.4589" x2="-75.7629" y1="262.4589" x1="-195.0393" gradientUnits="userSpaceOnUse" id="SVGID_21_">
		<stop style="stop-color:#C7D3DD" offset="0"></stop>
		<stop style="stop-color:#B6C4CE" offset="1"></stop>
	</linearGradient>
	<path d="M270.4,145.5c0,0,40.7,42.4,70.1,54.2s35.2,24.3,35.2,24.3S327,139.6,270.4,145.5z" class="st21"></path>
	
		<linearGradient gradientTransform="matrix(0.9497 0.313 -0.313 0.9497 817.9185 21.6079)" y2="428.8283" x2="-445.3402" y1="428.8283" x1="-545.1683" gradientUnits="userSpaceOnUse" id="SVGID_22_">
		<stop style="stop-color:#C7D3DD" offset="0"></stop>
		<stop style="stop-color:#B6C4CE" offset="1"></stop>
	</linearGradient>
	<path d="M172.8,237.4c0,0,30,39,53.4,51.5s27,23.5,27,23.5S220.4,237.7,172.8,237.4z" class="st22"></path>
	<linearGradient y2="267.3184" x2="309.0355" y1="267.3184" x1="172.7688" gradientUnits="userSpaceOnUse" id="SVGID_23_">
		<stop style="stop-color:#C7D3DD" offset="0"></stop>
		<stop style="stop-color:#B6C4CE" offset="1"></stop>
	</linearGradient>
	<path d="M172.8,237.4c0,0,55.6,37.7,91.2,44c35.6,6.3,45.1,18.9,45.1,18.9S234.6,217.5,172.8,237.4z" class="st23"></path>
</g>
</svg>
