<?xml version="1.0" standalone="no"?><!DOCTYPE svg PUBLIC "-//W3C//DTD SVG 1.1//EN" "http://www.w3.org/Graphics/SVG/1.1/DTD/svg11.dtd"><svg height="1024" node-id="1" sillyvg="true" template-height="1024" template-width="1024" version="1.1" viewBox="0 0 1024 1024" width="1024" xmlns="http://www.w3.org/2000/svg" xmlns:xlink="http://www.w3.org/1999/xlink"><defs node-id="183"><linearGradient gradientUnits="objectBoundingBox" id="SVGID_1_" node-id="5" spreadMethod="pad" x1="73.9625" x2="1002.7469" y1="509.3923" y2="509.3923"><stop offset="0" stop-color="#dae2ef"></stop><stop offset="1" stop-color="#f2f2f2"></stop></linearGradient><linearGradient gradientUnits="objectBoundingBox" id="SVGID_4_" node-id="15" spreadMethod="pad" x1="51.8785" x2="1020.7543" y1="833.7877" y2="833.7877"><stop offset="0" stop-color="#b7c5ce"></stop><stop offset="1" stop-color="#b6c4ce"></stop></linearGradient><linearGradient gradientUnits="objectBoundingBox" id="SVGID_5_" node-id="19" spreadMethod="pad" x1="306.4688" x2="339.2003" y1="367.8484" y2="367.8484"><stop offset="0" stop-color="#c7d3dd"></stop><stop offset="1" stop-color="#b6c4ce"></stop></linearGradient><linearGradient gradientUnits="objectBoundingBox" id="SVGID_6_" node-id="23" spreadMethod="pad" x1="907.656" x2="918.514" y1="288.0294" y2="288.0294"><stop offset="0" stop-color="#c7d3dd"></stop><stop offset="1" stop-color="#b6c4ce"></stop></linearGradient><linearGradient gradientUnits="objectBoundingBox" id="SVGID_7_" node-id="29" spreadMethod="pad" x1="638.6661" x2="906.5281" y1="559.3466" y2="559.3466"><stop offset="0" stop-color="#b7c5ce"></stop><stop offset="1" stop-color="#b6c4ce"></stop></linearGradient><linearGradient gradientUnits="objectBoundingBox" id="SVGID_8_" node-id="62" spreadMethod="pad" x1="-134.0525" x2="46.953" y1="2012.5292" y2="2012.5292"><stop offset="0" stop-color="#b7c5ce"></stop><stop offset="1" stop-color="#b6c4ce"></stop></linearGradient><linearGradient gradientUnits="objectBoundingBox" id="SVGID_9_" node-id="95" spreadMethod="pad" x1="8536.425" x2="8783.537" y1="-131.8234" y2="-131.8234"><stop offset="0" stop-color="#b7c5ce"></stop><stop offset="1" stop-color="#b6c4ce"></stop></linearGradient><linearGradient gradientUnits="objectBoundingBox" id="SVGID_10_" node-id="129" spreadMethod="pad" x1="393.2239" x2="694.4545" y1="535.2409" y2="535.2409"><stop offset="0" stop-color="#b7c5ce"></stop><stop offset="1" stop-color="#b6c4ce"></stop></linearGradient><linearGradient gradientUnits="objectBoundingBox" id="SVGID_11_" node-id="137" spreadMethod="pad" x1="339.5237" x2="986.2888" y1="826.7667" y2="826.7667"><stop offset="0" stop-color="#dae2ef"></stop><stop offset="1" stop-color="#f2f2f2"></stop></linearGradient><linearGradient gradientUnits="objectBoundingBox" id="SVGID_12_" node-id="141" spreadMethod="pad" x1="845.2916" x2="873.1956" y1="261.6812" y2="261.6812"><stop offset="0" stop-color="#c7d3dd"></stop><stop offset="1" stop-color="#b6c4ce"></stop></linearGradient><linearGradient gradientUnits="objectBoundingBox" id="SVGID_13_" node-id="145" spreadMethod="pad" x1="21.2531" x2="49.0944" y1="473.4752" y2="473.4752"><stop offset="0" stop-color="#c7d3dd"></stop><stop offset="1" stop-color="#b6c4ce"></stop></linearGradient><linearGradient gradientUnits="objectBoundingBox" id="SVGID_14_" node-id="149" spreadMethod="pad" x1="183.2265" x2="213.5711" y1="221.6965" y2="221.6965"><stop offset="0" stop-color="#c7d3dd"></stop><stop offset="1" stop-color="#b6c4ce"></stop></linearGradient><linearGradient gradientUnits="objectBoundingBox" id="SVGID_15_" node-id="153" spreadMethod="pad" x1="857.9348" x2="917.7416" y1="336.0993" y2="336.0993"><stop offset="0" stop-color="#c7d3dd"></stop><stop offset="1" stop-color="#b6c4ce"></stop></linearGradient><linearGradient gradientUnits="objectBoundingBox" id="SVGID_16_" node-id="157" spreadMethod="pad" x1="61.216" x2="736.2194" y1="424.7518" y2="424.7518"><stop offset="0" stop-color="#b7c5ce"></stop><stop offset="1" stop-color="#b6c4ce"></stop></linearGradient><linearGradient gradientUnits="objectBoundingBox" id="SVGID_17_" node-id="161" spreadMethod="pad" x1="583.6465" x2="608.1468" y1="246.8917" y2="246.8917"><stop offset="0" stop-color="#c7d3dd"></stop><stop offset="1" stop-color="#b6c4ce"></stop></linearGradient><linearGradient gradientUnits="objectBoundingBox" id="SVGID_18_" node-id="165" spreadMethod="pad" x1="233.6819" x2="257.347" y1="645.8569" y2="645.8569"><stop offset="0" stop-color="#c7d3dd"></stop><stop offset="1" stop-color="#b6c4ce"></stop></linearGradient><linearGradient gradientUnits="objectBoundingBox" id="SVGID_19_" node-id="169" spreadMethod="pad" x1="323.0523" x2="331.9615" y1="671.1924" y2="671.1924"><stop offset="0" stop-color="#c7d3dd"></stop><stop offset="1" stop-color="#b6c4ce"></stop></linearGradient><linearGradient gradientUnits="objectBoundingBox" id="SVGID_20_" node-id="173" spreadMethod="pad" x1="358.6891" x2="372.0529" y1="286.9831" y2="286.9831"><stop offset="0" stop-color="#c7d3dd"></stop><stop offset="1" stop-color="#b6c4ce"></stop></linearGradient><linearGradient gradientUnits="objectBoundingBox" id="SVGID_21_" node-id="177" spreadMethod="pad" x1="372.8675" x2="703.8419" y1="60.1948" y2="60.1948"><stop offset="0" stop-color="#dae2ef"></stop><stop offset="1" stop-color="#f2f2f2"></stop></linearGradient><clipPath id="SVGID_3_" node-id="13"><path d="M 1002.80 509.40 L 1002.60 524.20 L 1001.90 538.90 L 1000.70 553.50 L 999.10 568.00 L 997.00 582.50 L 994.50 596.90 L 991.50 611.10 L 988.10 625.30 L 984.30 639.20 L 980.00 653.10 L 975.30 666.90 L 970.20 680.40 L 964.60 693.80 L 958.70 707.00 L 952.30 720.00 L 945.50 732.90 L 938.30 745.50 L 930.70 757.90 L 922.80 770.00 L 914.40 782.00 L 905.60 793.70 L 896.50 805.10 L 887.00 816.20 L 877.10 827.10 L 866.80 837.80 L 856.10 848.10 L 845.20 858.00 L 834.10 867.50 L 822.70 876.60 L 811.00 885.40 L 799.00 893.80 L 786.90 901.70 L 774.50 909.30 L 761.90 916.50 L 749.00 923.30 L 736.00 929.70 L 722.80 935.60 L 709.40 941.20 L 695.90 946.30 L 682.10 951.00 L 668.20 955.30 L 654.30 959.10 L 640.10 962.50 L 625.90 965.50 L 611.50 968.00 L 597.00 970.10 L 582.50 971.70 L 567.90 972.90 L 553.20 973.60 L 538.40 973.80 L 523.60 973.60 L 508.90 972.90 L 494.30 971.70 L 479.80 970.10 L 465.30 968.00 L 450.90 965.50 L 436.70 962.50 L 422.50 959.10 L 408.60 955.30 L 394.70 951.00 L 380.90 946.30 L 367.40 941.20 L 354.00 935.60 L 340.80 929.70 L 327.80 923.30 L 314.90 916.50 L 302.30 909.30 L 289.90 901.70 L 277.80 893.80 L 265.80 885.40 L 254.10 876.60 L 242.70 867.50 L 231.60 858.00 L 220.70 848.10 L 210.00 837.80 L 199.70 827.10 L 189.80 816.20 L 180.30 805.10 L 171.20 793.70 L 162.40 782.00 L 154.00 770.00 L 146.10 757.90 L 138.50 745.50 L 131.30 732.90 L 124.50 720.00 L 118.10 707.00 L 112.20 693.80 L 106.60 680.40 L 101.50 666.90 L 96.80 653.10 L 92.50 639.20 L 88.70 625.30 L 85.30 611.10 L 82.30 596.90 L 79.80 582.50 L 77.70 568.00 L 76.10 553.50 L 74.90 538.90 L 74.20 524.20 L 74.00 509.40 L 74.20 494.60 L 74.90 479.90 L 76.10 465.30 L 77.70 450.80 L 79.80 436.30 L 82.30 421.90 L 85.30 407.70 L 88.70 393.50 L 92.50 379.60 L 96.80 365.70 L 101.50 351.90 L 106.60 338.40 L 112.20 325.00 L 118.10 311.80 L 124.50 298.80 L 131.30 285.90 L 138.50 273.30 L 146.10 260.90 L 154.00 248.80 L 162.40 236.80 L 171.20 225.10 L 180.30 213.70 L 189.80 202.60 L 199.70 191.70 L 210.00 181.00 L 220.70 170.70 L 231.60 160.80 L 242.70 151.30 L 254.10 142.20 L 265.80 133.40 L 277.80 125.00 L 289.90 117.10 L 302.30 109.50 L 314.90 102.30 L 327.80 95.50 L 340.80 89.10 L 354.00 83.20 L 367.40 77.60 L 380.90 72.50 L 394.70 67.80 L 408.60 63.50 L 422.50 59.70 L 436.70 56.30 L 450.90 53.30 L 465.30 50.80 L 479.80 48.70 L 494.30 47.10 L 508.90 45.90 L 523.60 45.20 L 538.40 45.00 L 553.20 45.20 L 567.90 45.90 L 582.50 47.10 L 597.00 48.70 L 611.50 50.80 L 625.90 53.30 L 640.10 56.30 L 654.30 59.70 L 668.20 63.50 L 682.10 67.80 L 695.90 72.50 L 709.40 77.60 L 722.80 83.20 L 736.00 89.10 L 749.00 95.50 L 761.90 102.30 L 774.50 109.50 L 786.90 117.10 L 799.00 125.00 L 811.00 133.40 L 822.70 142.20 L 834.10 151.30 L 845.20 160.80 L 856.10 170.70 L 866.80 181.00 L 877.10 191.70 L 887.00 202.60 L 896.50 213.70 L 905.60 225.10 L 914.40 236.80 L 922.80 248.80 L 930.70 260.90 L 938.30 273.30 L 945.50 285.90 L 952.30 298.80 L 958.70 311.80 L 964.60 325.00 L 970.20 338.40 L 975.30 351.90 L 980.00 365.70 L 984.30 379.60 L 988.10 393.50 L 991.50 407.70 L 994.50 421.90 L 997.00 436.30 L 999.10 450.80 L 1000.70 465.30 L 1001.90 479.90 L 1002.60 494.60 L 1002.80 509.40 Z" fill="#000000" fill-rule="nonzero" node-id="300" stroke="none" target-height="928.8" target-width="928.8" target-x="74" target-y="45"></path></clipPath></defs><path d="M 1002.80 509.40 L 1002.60 524.20 L 1001.90 538.90 L 1000.70 553.50 L 999.10 568.00 L 997.00 582.50 L 994.50 596.90 L 991.50 611.10 L 988.10 625.30 L 984.30 639.20 L 980.00 653.10 L 975.30 666.90 L 970.20 680.40 L 964.60 693.80 L 958.70 707.00 L 952.30 720.00 L 945.50 732.90 L 938.30 745.50 L 930.70 757.90 L 922.80 770.00 L 914.40 782.00 L 905.60 793.70 L 896.50 805.10 L 887.00 816.20 L 877.10 827.10 L 866.80 837.80 L 856.10 848.10 L 845.20 858.00 L 834.10 867.50 L 822.70 876.60 L 811.00 885.40 L 799.00 893.80 L 786.90 901.70 L 774.50 909.30 L 761.90 916.50 L 749.00 923.30 L 736.00 929.70 L 722.80 935.60 L 709.40 941.20 L 695.90 946.30 L 682.10 951.00 L 668.20 955.30 L 654.30 959.10 L 640.10 962.50 L 625.90 965.50 L 611.50 968.00 L 597.00 970.10 L 582.50 971.70 L 567.90 972.90 L 553.20 973.60 L 538.40 973.80 L 523.60 973.60 L 508.90 972.90 L 494.30 971.70 L 479.80 970.10 L 465.30 968.00 L 450.90 965.50 L 436.70 962.50 L 422.50 959.10 L 408.60 955.30 L 394.70 951.00 L 380.90 946.30 L 367.40 941.20 L 354.00 935.60 L 340.80 929.70 L 327.80 923.30 L 314.90 916.50 L 302.30 909.30 L 289.90 901.70 L 277.80 893.80 L 265.80 885.40 L 254.10 876.60 L 242.70 867.50 L 231.60 858.00 L 220.70 848.10 L 210.00 837.80 L 199.70 827.10 L 189.80 816.20 L 180.30 805.10 L 171.20 793.70 L 162.40 782.00 L 154.00 770.00 L 146.10 757.90 L 138.50 745.50 L 131.30 732.90 L 124.50 720.00 L 118.10 707.00 L 112.20 693.80 L 106.60 680.40 L 101.50 666.90 L 96.80 653.10 L 92.50 639.20 L 88.70 625.30 L 85.30 611.10 L 82.30 596.90 L 79.80 582.50 L 77.70 568.00 L 76.10 553.50 L 74.90 538.90 L 74.20 524.20 L 74.00 509.40 L 74.20 494.60 L 74.90 479.90 L 76.10 465.30 L 77.70 450.80 L 79.80 436.30 L 82.30 421.90 L 85.30 407.70 L 88.70 393.50 L 92.50 379.60 L 96.80 365.70 L 101.50 351.90 L 106.60 338.40 L 112.20 325.00 L 118.10 311.80 L 124.50 298.80 L 131.30 285.90 L 138.50 273.30 L 146.10 260.90 L 154.00 248.80 L 162.40 236.80 L 171.20 225.10 L 180.30 213.70 L 189.80 202.60 L 199.70 191.70 L 210.00 181.00 L 220.70 170.70 L 231.60 160.80 L 242.70 151.30 L 254.10 142.20 L 265.80 133.40 L 277.80 125.00 L 289.90 117.10 L 302.30 109.50 L 314.90 102.30 L 327.80 95.50 L 340.80 89.10 L 354.00 83.20 L 367.40 77.60 L 380.90 72.50 L 394.70 67.80 L 408.60 63.50 L 422.50 59.70 L 436.70 56.30 L 450.90 53.30 L 465.30 50.80 L 479.80 48.70 L 494.30 47.10 L 508.90 45.90 L 523.60 45.20 L 538.40 45.00 L 553.20 45.20 L 567.90 45.90 L 582.50 47.10 L 597.00 48.70 L 611.50 50.80 L 625.90 53.30 L 640.10 56.30 L 654.30 59.70 L 668.20 63.50 L 682.10 67.80 L 695.90 72.50 L 709.40 77.60 L 722.80 83.20 L 736.00 89.10 L 749.00 95.50 L 761.90 102.30 L 774.50 109.50 L 786.90 117.10 L 799.00 125.00 L 811.00 133.40 L 822.70 142.20 L 834.10 151.30 L 845.20 160.80 L 856.10 170.70 L 866.80 181.00 L 877.10 191.70 L 887.00 202.60 L 896.50 213.70 L 905.60 225.10 L 914.40 236.80 L 922.80 248.80 L 930.70 260.90 L 938.30 273.30 L 945.50 285.90 L 952.30 298.80 L 958.70 311.80 L 964.60 325.00 L 970.20 338.40 L 975.30 351.90 L 980.00 365.70 L 984.30 379.60 L 988.10 393.50 L 991.50 407.70 L 994.50 421.90 L 997.00 436.30 L 999.10 450.80 L 1000.70 465.30 L 1001.90 479.90 L 1002.60 494.60 L 1002.80 509.40 Z" fill="url(#SVGID_1_)" fill-rule="nonzero" node-id="306" stroke="none" target-height="928.8" target-width="928.8" target-x="74" target-y="45"></path><path d="M 1002.80 509.40 L 1002.60 524.20 L 1001.90 538.90 L 1000.70 553.50 L 999.10 568.00 L 997.00 582.50 L 994.50 596.90 L 991.50 611.10 L 988.10 625.30 L 984.30 639.20 L 980.00 653.10 L 975.30 666.90 L 970.20 680.40 L 964.60 693.80 L 958.70 707.00 L 952.30 720.00 L 945.50 732.90 L 938.30 745.50 L 930.70 757.90 L 922.80 770.00 L 914.40 782.00 L 905.60 793.70 L 896.50 805.10 L 887.00 816.20 L 877.10 827.10 L 866.80 837.80 L 856.10 848.10 L 845.20 858.00 L 834.10 867.50 L 822.70 876.60 L 811.00 885.40 L 799.00 893.80 L 786.90 901.70 L 774.50 909.30 L 761.90 916.50 L 749.00 923.30 L 736.00 929.70 L 722.80 935.60 L 709.40 941.20 L 695.90 946.30 L 682.10 951.00 L 668.20 955.30 L 654.30 959.10 L 640.10 962.50 L 625.90 965.50 L 611.50 968.00 L 597.00 970.10 L 582.50 971.70 L 567.90 972.90 L 553.20 973.60 L 538.40 973.80 L 523.60 973.60 L 508.90 972.90 L 494.30 971.70 L 479.80 970.10 L 465.30 968.00 L 450.90 965.50 L 436.70 962.50 L 422.50 959.10 L 408.60 955.30 L 394.70 951.00 L 380.90 946.30 L 367.40 941.20 L 354.00 935.60 L 340.80 929.70 L 327.80 923.30 L 314.90 916.50 L 302.30 909.30 L 289.90 901.70 L 277.80 893.80 L 265.80 885.40 L 254.10 876.60 L 242.70 867.50 L 231.60 858.00 L 220.70 848.10 L 210.00 837.80 L 199.70 827.10 L 189.80 816.20 L 180.30 805.10 L 171.20 793.70 L 162.40 782.00 L 154.00 770.00 L 146.10 757.90 L 138.50 745.50 L 131.30 732.90 L 124.50 720.00 L 118.10 707.00 L 112.20 693.80 L 106.60 680.40 L 101.50 666.90 L 96.80 653.10 L 92.50 639.20 L 88.70 625.30 L 85.30 611.10 L 82.30 596.90 L 79.80 582.50 L 77.70 568.00 L 76.10 553.50 L 74.90 538.90 L 74.20 524.20 L 74.00 509.40 L 74.20 494.60 L 74.90 479.90 L 76.10 465.30 L 77.70 450.80 L 79.80 436.30 L 82.30 421.90 L 85.30 407.70 L 88.70 393.50 L 92.50 379.60 L 96.80 365.70 L 101.50 351.90 L 106.60 338.40 L 112.20 325.00 L 118.10 311.80 L 124.50 298.80 L 131.30 285.90 L 138.50 273.30 L 146.10 260.90 L 154.00 248.80 L 162.40 236.80 L 171.20 225.10 L 180.30 213.70 L 189.80 202.60 L 199.70 191.70 L 210.00 181.00 L 220.70 170.70 L 231.60 160.80 L 242.70 151.30 L 254.10 142.20 L 265.80 133.40 L 277.80 125.00 L 289.90 117.10 L 302.30 109.50 L 314.90 102.30 L 327.80 95.50 L 340.80 89.10 L 354.00 83.20 L 367.40 77.60 L 380.90 72.50 L 394.70 67.80 L 408.60 63.50 L 422.50 59.70 L 436.70 56.30 L 450.90 53.30 L 465.30 50.80 L 479.80 48.70 L 494.30 47.10 L 508.90 45.90 L 523.60 45.20 L 538.40 45.00 L 553.20 45.20 L 567.90 45.90 L 582.50 47.10 L 597.00 48.70 L 611.50 50.80 L 625.90 53.30 L 640.10 56.30 L 654.30 59.70 L 668.20 63.50 L 682.10 67.80 L 695.90 72.50 L 709.40 77.60 L 722.80 83.20 L 736.00 89.10 L 749.00 95.50 L 761.90 102.30 L 774.50 109.50 L 786.90 117.10 L 799.00 125.00 L 811.00 133.40 L 822.70 142.20 L 834.10 151.30 L 845.20 160.80 L 856.10 170.70 L 866.80 181.00 L 877.10 191.70 L 887.00 202.60 L 896.50 213.70 L 905.60 225.10 L 914.40 236.80 L 922.80 248.80 L 930.70 260.90 L 938.30 273.30 L 945.50 285.90 L 952.30 298.80 L 958.70 311.80 L 964.60 325.00 L 970.20 338.40 L 975.30 351.90 L 980.00 365.70 L 984.30 379.60 L 988.10 393.50 L 991.50 407.70 L 994.50 421.90 L 997.00 436.30 L 999.10 450.80 L 1000.70 465.30 L 1001.90 479.90 L 1002.60 494.60 L 1002.80 509.40 Z" fill="none" node-id="308" stroke="none" target-height="928.8" target-width="928.8" target-x="74" target-y="45"></path><g node-id="548"><g clip-path="url(#SVGID_3_)" group-id="1" node-id="312"><path d="M 51.90 687.60 L 1020.80 687.60 L 1020.80 979.90 L 51.90 979.90 Z" fill="url(#SVGID_4_)" fill-rule="nonzero" group-id="1,7" node-id="314" stroke="none" target-height="292.30005" target-width="968.89996" target-x="51.9" target-y="687.6"></path></g></g><path d="M 339.20 367.80 L 338.90 370.80 L 338.20 373.50 L 337.00 376.10 L 335.30 378.40 L 333.40 380.30 L 331.10 382.00 L 328.50 383.20 L 325.80 383.90 L 322.80 384.20 L 319.80 383.90 L 317.10 383.20 L 314.50 382.00 L 312.20 380.30 L 310.30 378.40 L 308.60 376.10 L 307.40 373.50 L 306.70 370.80 L 306.40 367.80 L 306.70 364.80 L 307.40 362.10 L 308.60 359.50 L 310.30 357.20 L 312.20 355.30 L 314.50 353.60 L 317.10 352.40 L 319.80 351.70 L 322.80 351.40 L 325.80 351.70 L 328.50 352.40 L 331.10 353.60 L 333.40 355.30 L 335.30 357.20 L 337.00 359.50 L 338.20 362.10 L 338.90 364.80 L 339.20 367.80 Z" fill="url(#SVGID_5_)" fill-rule="nonzero" node-id="318" stroke="none" target-height="32.80002" target-width="32.80002" target-x="306.4" target-y="351.4"></path><path d="M 918.50 288.00 L 917.80 290.70 L 916.90 291.80 L 915.80 292.70 L 913.10 293.40 L 911.70 293.20 L 909.30 291.80 L 908.40 290.70 L 907.70 288.00 L 907.90 286.60 L 909.30 284.20 L 910.40 283.30 L 913.10 282.60 L 914.50 282.80 L 916.90 284.20 L 917.80 285.30 L 918.50 288.00 Z" fill="url(#SVGID_6_)" fill-rule="nonzero" node-id="320" stroke="none" target-height="10.799988" target-width="10.799988" target-x="907.7" target-y="282.6"></path><path d="M 449.80 883.20 L 434.60 874.90 L 433.90 873.20 L 433.70 871.30 L 433.90 869.30 L 434.60 867.40 L 449.80 875.70 L 449.10 877.70 L 448.80 879.60 L 449.10 881.50 L 449.80 883.20 Z" fill="none" node-id="322" stroke="none" target-height="15.799988" target-width="16.099976" target-x="433.7" target-y="867.4"></path><g node-id="549"><path d="M 638.70 739.00 L 644.60 714.60 L 656.30 671.30 L 667.60 634.00 L 674.20 613.50 L 681.40 592.80 L 689.20 571.40 L 697.70 550.00 L 706.70 528.60 L 713.00 514.50 L 726.40 487.50 L 733.60 474.30 L 740.90 461.80 L 748.30 450.00 L 760.20 433.10 L 772.30 418.50 L 778.80 411.60 L 785.30 405.40 L 791.80 399.90 L 798.40 395.00 L 803.90 391.40 L 809.50 388.30 L 815.10 385.70 L 820.70 383.50 L 826.30 381.80 L 832.10 380.60 L 837.90 379.90 L 843.80 379.80 L 849.80 380.20 L 856.00 381.10 L 862.80 382.70 L 869.00 384.60 L 874.40 386.70 L 879.30 389.00 L 883.70 391.60 L 887.60 394.30 L 891.40 397.50 L 894.70 400.90 L 897.50 404.50 L 900.00 408.30 L 902.00 412.40 L 903.70 416.60 L 905.10 421.90 L 906.00 427.50 L 906.50 433.40 L 906.40 439.80 L 905.70 446.60 L 904.60 453.10 L 900.80 467.10 L 898.20 474.70 L 894.90 482.70 L 890.60 492.10 L 885.50 502.00 L 879.60 512.40 L 872.80 523.20 L 858.20 544.30 L 849.80 555.30 L 831.30 577.70 L 810.90 600.10 L 799.80 611.60 L 784.60 626.50 L 768.60 641.40 L 751.60 656.30 L 734.20 670.80 L 716.20 685.20 L 697.40 699.30 L 678.30 713.00 L 658.80 726.20 L 638.70 739.00 Z" fill="url(#SVGID_7_)" fill-rule="nonzero" group-id="2" node-id="326" stroke="none" target-height="359.2" target-width="267.8" target-x="638.7" target-y="379.8"></path><g node-id="555"><path d="M 668.40 697.80 L 677.10 677.70 L 686.40 657.80 L 696.20 638.10 L 706.50 618.70 L 717.20 599.50 L 728.40 580.60 L 744.10 555.90 L 760.90 531.80 L 778.80 508.50 L 793.20 491.80 L 808.50 475.90 L 816.50 468.30 L 824.90 461.10 L 833.50 454.30 L 842.50 447.90 L 848.70 444.00 L 861.60 437.00 L 868.30 434.00 L 875.20 431.50 L 882.30 429.50 L 875.40 432.00 L 868.80 434.90 L 862.30 438.20 L 849.80 445.70 L 835.30 456.60 L 827.00 463.60 L 819.00 471.00 L 811.30 478.70 L 801.40 489.30 L 791.80 500.20 L 782.60 511.50 L 769.30 528.80 L 750.40 555.60 L 732.50 583.10 L 721.10 601.70 L 699.20 639.60 L 678.30 678.20 L 668.40 697.80 Z" fill="#ffffff" fill-rule="nonzero" group-id="2,8" node-id="330" stroke="none" target-height="268.3" target-width="213.89996" target-x="668.4" target-y="429.5"></path></g><path d="M 821.40 459.50 L 824.40 450.40 L 824.80 447.80 L 824.70 444.80 L 824.30 443.70 L 823.40 442.80 L 822.60 442.60 L 821.80 443.20 L 821.10 444.30 L 820.50 446.10 L 820.10 451.70 L 821.40 459.50 Z" fill="#ffffff" fill-rule="nonzero" group-id="2" node-id="333" stroke="none" target-height="16.899994" target-width="4.700012" target-x="820.1" target-y="442.6"></path><path d="M 807.50 472.80 L 808.30 463.20 L 808.10 460.60 L 807.20 457.70 L 806.60 456.80 L 805.60 456.10 L 804.80 456.20 L 804.10 456.90 L 803.70 458.10 L 803.50 459.90 L 804.40 465.40 L 807.50 472.80 Z" fill="#ffffff" fill-rule="nonzero" group-id="2" node-id="335" stroke="none" target-height="16.699982" target-width="4.799988" target-x="803.5" target-y="456.1"></path><path d="M 790.30 489.30 L 792.40 479.90 L 792.50 477.30 L 792.10 474.30 L 791.60 473.30 L 790.60 472.50 L 789.80 472.40 L 789.00 473.10 L 788.50 474.20 L 788.10 476.00 L 788.20 481.60 L 790.30 489.30 Z" fill="#ffffff" fill-rule="nonzero" group-id="2" node-id="337" stroke="none" target-height="16.899994" target-width="4.4000244" target-x="788.1" target-y="472.4"></path><path d="M 776.30 505.90 L 777.70 496.40 L 777.70 493.80 L 777.10 490.90 L 776.50 489.90 L 775.50 489.10 L 774.70 489.10 L 773.90 489.80 L 773.50 491.00 L 773.20 492.80 L 773.70 498.40 L 776.30 505.90 Z" fill="#ffffff" fill-rule="nonzero" group-id="2" node-id="339" stroke="none" target-height="16.799988" target-width="4.5" target-x="773.2" target-y="489.1"></path><path d="M 762.90 524.70 L 764.00 515.20 L 763.90 512.60 L 763.20 509.60 L 762.60 508.70 L 761.50 507.90 L 760.80 508.00 L 760.00 508.70 L 759.60 509.80 L 759.40 511.70 L 760.10 517.20 L 762.90 524.70 Z" fill="#ffffff" fill-rule="nonzero" group-id="2" node-id="341" stroke="none" target-height="16.800018" target-width="4.5999756" target-x="759.4" target-y="507.9"></path><path d="M 748.30 541.70 L 749.90 532.30 L 750.00 529.70 L 749.40 526.70 L 748.90 525.70 L 747.90 524.90 L 747.20 524.90 L 746.40 525.60 L 745.90 526.70 L 745.60 528.50 L 745.90 534.10 L 748.30 541.70 Z" fill="#ffffff" fill-rule="nonzero" group-id="2" node-id="343" stroke="none" target-height="16.799988" target-width="4.4000244" target-x="745.6" target-y="524.9"></path><path d="M 735.40 562.20 L 737.00 552.80 L 736.70 547.80 L 735.90 546.20 L 734.90 545.40 L 734.10 545.40 L 733.30 546.10 L 732.80 547.20 L 732.50 549.10 L 732.90 554.70 L 735.40 562.20 Z" fill="#ffffff" fill-rule="nonzero" group-id="2" node-id="345" stroke="none" target-height="16.799988" target-width="4.5" target-x="732.5" target-y="545.4"></path><path d="M 723.50 581.10 L 725.20 571.70 L 725.00 566.70 L 724.30 565.10 L 723.30 564.30 L 722.50 564.30 L 721.80 565.00 L 721.20 566.10 L 720.90 567.90 L 721.20 573.50 L 723.50 581.10 Z" fill="#ffffff" fill-rule="nonzero" group-id="2" node-id="347" stroke="none" target-height="16.799988" target-width="4.299988" target-x="720.9" target-y="564.3"></path><path d="M 715.50 598.00 L 715.50 588.40 L 714.40 583.50 L 713.40 582.10 L 712.30 581.50 L 711.50 581.60 L 710.90 582.50 L 710.60 583.70 L 710.60 585.50 L 711.80 590.90 L 715.50 598.00 Z" fill="#ffffff" fill-rule="nonzero" group-id="2" node-id="349" stroke="none" target-height="16.5" target-width="4.9000244" target-x="710.6" target-y="581.5"></path><path d="M 704.40 615.60 L 705.90 606.10 L 706.00 603.50 L 705.40 600.60 L 704.80 599.60 L 703.80 598.80 L 703.00 598.80 L 702.20 599.50 L 701.70 600.70 L 701.50 602.50 L 701.90 608.10 L 704.40 615.60 Z" fill="#ffffff" fill-rule="nonzero" group-id="2" node-id="351" stroke="none" target-height="16.799988" target-width="4.5" target-x="701.5" target-y="598.8"></path><path d="M 694.50 634.90 L 695.80 625.40 L 695.80 622.80 L 695.20 619.90 L 694.60 618.90 L 693.50 618.10 L 692.70 618.20 L 692.00 618.90 L 691.50 620.00 L 691.30 621.80 L 691.80 627.40 L 694.50 634.90 Z" fill="#ffffff" fill-rule="nonzero" group-id="2" node-id="353" stroke="none" target-height="16.800049" target-width="4.5" target-x="691.3" target-y="618.1"></path><path d="M 684.30 656.20 L 686.10 646.80 L 686.20 644.20 L 685.70 641.20 L 685.20 640.20 L 684.20 639.40 L 683.40 639.30 L 682.60 640.00 L 682.10 641.10 L 681.70 643.00 L 682.00 648.60 L 684.30 656.20 Z" fill="#ffffff" fill-rule="nonzero" group-id="2" node-id="355" stroke="none" target-height="16.900024" target-width="4.5" target-x="681.7" target-y="639.3"></path><path d="M 674.90 675.20 L 676.20 665.70 L 675.70 660.80 L 674.90 659.20 L 673.80 658.40 L 673.00 658.50 L 672.30 659.20 L 671.80 660.30 L 671.60 662.10 L 672.20 667.70 L 674.90 675.20 Z" fill="#ffffff" fill-rule="nonzero" group-id="2" node-id="357" stroke="none" target-height="16.799988" target-width="4.6000366" target-x="671.6" target-y="658.4"></path><path d="M 846.50 454.90 L 855.60 452.00 L 858.20 451.60 L 861.20 451.70 L 862.30 452.10 L 863.20 453.00 L 863.30 453.80 L 862.70 454.60 L 861.70 455.30 L 859.90 455.90 L 854.40 456.30 L 846.50 454.90 Z" fill="#ffffff" fill-rule="nonzero" group-id="2" node-id="359" stroke="none" target-height="4.6999817" target-width="16.799988" target-x="846.5" target-y="451.6"></path><path d="M 825.70 471.50 L 834.80 468.60 L 837.40 468.20 L 840.40 468.30 L 841.50 468.70 L 842.40 469.60 L 842.50 470.40 L 841.90 471.20 L 840.90 471.90 L 839.10 472.50 L 833.60 472.90 L 825.70 471.50 Z" fill="#ffffff" fill-rule="nonzero" group-id="2" node-id="361" stroke="none" target-height="4.6999817" target-width="16.799988" target-x="825.7" target-y="468.2"></path><path d="M 808.80 487.30 L 817.90 484.40 L 820.50 484.00 L 823.50 484.10 L 824.60 484.50 L 825.50 485.40 L 825.60 486.20 L 825.00 487.00 L 824.00 487.70 L 822.20 488.30 L 816.70 488.70 L 808.80 487.30 Z" fill="#ffffff" fill-rule="nonzero" group-id="2" node-id="363" stroke="none" target-height="4.700012" target-width="16.799988" target-x="808.8" target-y="484"></path><path d="M 792.00 505.30 L 801.10 502.40 L 803.70 502.00 L 806.70 502.10 L 807.80 502.50 L 808.70 503.40 L 808.80 504.20 L 808.20 505.00 L 807.20 505.70 L 805.40 506.30 L 799.90 506.70 L 792.00 505.30 Z" fill="#ffffff" fill-rule="nonzero" group-id="2" node-id="365" stroke="none" target-height="4.700012" target-width="16.799988" target-x="792" target-y="502"></path><path d="M 779.30 522.70 L 788.40 519.80 L 791.00 519.40 L 794.00 519.50 L 795.10 519.90 L 796.00 520.80 L 796.10 521.60 L 795.50 522.50 L 794.50 523.10 L 792.70 523.70 L 787.10 524.10 L 779.30 522.70 Z" fill="#ffffff" fill-rule="nonzero" group-id="2" node-id="367" stroke="none" target-height="4.699951" target-width="16.799988" target-x="779.3" target-y="519.4"></path><path d="M 766.20 540.00 L 775.30 537.10 L 777.90 536.70 L 780.90 536.80 L 782.00 537.20 L 782.90 538.10 L 783.00 538.90 L 782.40 539.70 L 781.40 540.40 L 779.60 541.00 L 774.10 541.40 L 766.20 540.00 Z" fill="#ffffff" fill-rule="nonzero" group-id="2" node-id="369" stroke="none" target-height="4.700012" target-width="16.799988" target-x="766.2" target-y="536.7"></path><path d="M 749.70 561.50 L 758.80 558.60 L 761.40 558.20 L 764.40 558.30 L 765.50 558.70 L 766.40 559.60 L 766.60 560.40 L 766.00 561.20 L 764.90 561.90 L 763.20 562.50 L 757.60 562.90 L 749.70 561.50 Z" fill="#ffffff" fill-rule="nonzero" group-id="2" node-id="371" stroke="none" target-height="4.700012" target-width="16.899963" target-x="749.7" target-y="558.2"></path><path d="M 740.00 579.20 L 749.10 576.30 L 751.70 575.90 L 754.70 576.00 L 755.80 576.40 L 756.70 577.30 L 756.80 578.10 L 756.20 578.90 L 755.20 579.60 L 753.40 580.20 L 747.90 580.60 L 740.00 579.20 Z" fill="#ffffff" fill-rule="nonzero" group-id="2" node-id="373" stroke="none" target-height="4.699951" target-width="16.799988" target-x="740" target-y="575.9"></path><path d="M 729.70 595.80 L 738.80 592.90 L 741.40 592.50 L 744.40 592.60 L 745.50 593.00 L 746.40 593.90 L 746.50 594.70 L 745.90 595.50 L 744.90 596.20 L 743.10 596.80 L 737.50 597.20 L 729.70 595.80 Z" fill="#ffffff" fill-rule="nonzero" group-id="2" node-id="375" stroke="none" target-height="4.700012" target-width="16.799988" target-x="729.7" target-y="592.5"></path><path d="M 717.50 615.00 L 726.60 612.10 L 729.20 611.70 L 732.20 611.80 L 733.30 612.20 L 734.20 613.10 L 734.30 613.90 L 733.70 614.70 L 732.70 615.40 L 730.90 616.00 L 725.40 616.40 L 717.50 615.00 Z" fill="#ffffff" fill-rule="nonzero" group-id="2" node-id="377" stroke="none" target-height="4.700012" target-width="16.799988" target-x="717.5" target-y="611.7"></path><path d="M 708.50 631.90 L 717.60 629.00 L 720.20 628.60 L 723.20 628.70 L 724.30 629.10 L 725.20 630.00 L 725.30 630.80 L 724.70 631.60 L 723.70 632.30 L 721.90 632.90 L 716.40 633.30 L 708.50 631.90 Z" fill="#ffffff" fill-rule="nonzero" group-id="2" node-id="379" stroke="none" target-height="4.700012" target-width="16.799988" target-x="708.5" target-y="628.6"></path><path d="M 697.40 652.00 L 706.50 649.10 L 709.10 648.70 L 712.10 648.80 L 713.20 649.20 L 714.10 650.10 L 714.20 650.90 L 713.60 651.70 L 712.60 652.40 L 710.80 653.00 L 705.30 653.40 L 697.40 652.00 Z" fill="#ffffff" fill-rule="nonzero" group-id="2" node-id="381" stroke="none" target-height="4.700012" target-width="16.799988" target-x="697.4" target-y="648.7"></path><path d="M 687.30 669.50 L 696.40 666.60 L 699.00 666.20 L 702.00 666.30 L 703.10 666.70 L 704.00 667.60 L 704.10 668.40 L 703.50 669.20 L 702.50 669.90 L 700.70 670.50 L 695.20 670.90 L 687.30 669.50 Z" fill="#ffffff" fill-rule="nonzero" group-id="2" node-id="383" stroke="none" target-height="4.700012" target-width="16.799988" target-x="687.3" target-y="666.2"></path></g><g node-id="550"><path d="M 646.40 725.80 L 664.90 696.60 L 681.20 672.60 L 690.90 659.10 L 712.40 631.00 L 724.00 616.80 L 736.20 602.90 L 744.60 593.80 L 761.60 577.10 L 770.40 569.20 L 779.10 562.10 L 787.60 555.80 L 794.30 551.30 L 800.90 547.40 L 807.30 544.00 L 813.50 541.20 L 820.00 538.90 L 826.30 537.20 L 832.40 536.20 L 838.30 535.80 L 843.10 536.00 L 847.70 536.70 L 852.30 537.80 L 856.80 539.50 L 861.20 541.70 L 866.50 545.00 L 870.90 548.40 L 874.60 551.80 L 877.50 555.20 L 879.90 558.70 L 881.80 562.50 L 883.20 566.40 L 884.00 570.40 L 884.30 574.50 L 884.10 578.80 L 883.40 582.90 L 882.20 587.20 L 880.50 591.60 L 878.30 596.30 L 875.50 601.10 L 871.70 606.60 L 867.20 612.40 L 861.80 618.40 L 855.70 624.60 L 842.40 636.20 L 826.30 648.30 L 814.90 655.90 L 802.50 663.60 L 789.10 671.30 L 775.40 678.50 L 760.90 685.60 L 745.60 692.50 L 730.10 699.00 L 714.00 705.10 L 697.50 711.00 L 680.70 716.40 L 663.70 721.30 L 646.40 725.80 Z" fill="url(#SVGID_8_)" fill-rule="nonzero" group-id="3" node-id="388" stroke="none" target-height="190" target-width="237.89996" target-x="646.4" target-y="535.8"></path><g node-id="556"><path d="M 674.10 705.60 L 694.10 683.70 L 704.50 673.10 L 726.10 652.70 L 748.70 633.50 L 760.40 624.30 L 772.40 615.60 L 784.80 607.30 L 801.90 597.20 L 810.70 592.60 L 819.70 588.40 L 829.00 584.80 L 838.40 581.80 L 845.70 580.10 L 853.00 578.80 L 862.80 578.10 L 867.80 578.30 L 860.40 578.70 L 853.10 579.60 L 845.90 581.20 L 832.00 585.70 L 825.20 588.50 L 811.90 594.90 L 803.30 599.60 L 786.60 609.90 L 774.40 618.20 L 762.50 626.90 L 750.80 636.00 L 728.10 654.90 L 706.10 674.60 L 695.30 684.70 L 674.10 705.60 Z" fill="#ffffff" fill-rule="nonzero" group-id="3,9" node-id="392" stroke="none" target-height="127.5" target-width="193.70001" target-x="674.1" target-y="578.1"></path></g><path d="M 822.50 584.70 L 826.30 579.50 L 827.70 576.40 L 827.70 575.20 L 827.30 574.40 L 826.90 574.20 L 826.20 574.40 L 825.20 575.40 L 823.30 579.40 L 822.50 584.70 Z" fill="#ffffff" fill-rule="nonzero" group-id="3" node-id="395" stroke="none" target-height="10.5" target-width="5.200012" target-x="822.5" target-y="574.2"></path><path d="M 810.80 590.30 L 813.30 584.40 L 813.80 581.00 L 813.60 579.90 L 813.10 579.20 L 812.50 579.10 L 811.90 579.40 L 811.20 580.60 L 810.50 583.10 L 810.40 586.10 L 810.80 590.30 Z" fill="#ffffff" fill-rule="nonzero" group-id="3" node-id="397" stroke="none" target-height="11.200012" target-width="3.3999634" target-x="810.4" target-y="579.1"></path><path d="M 796.30 597.30 L 799.60 591.70 L 800.60 588.50 L 800.50 587.30 L 800.00 586.50 L 799.50 586.40 L 798.30 587.20 L 797.70 588.30 L 796.40 593.00 L 796.30 597.30 Z" fill="#ffffff" fill-rule="nonzero" group-id="3" node-id="399" stroke="none" target-height="10.899963" target-width="4.299988" target-x="796.3" target-y="586.4"></path><path d="M 783.80 605.00 L 786.70 599.20 L 787.50 596.00 L 787.30 594.80 L 786.80 594.10 L 786.30 593.90 L 785.10 594.80 L 784.50 596.00 L 783.60 600.70 L 783.80 605.00 Z" fill="#ffffff" fill-rule="nonzero" group-id="3" node-id="401" stroke="none" target-height="11.099976" target-width="3.9000244" target-x="783.6" target-y="593.9"></path><path d="M 771.20 614.20 L 773.90 608.30 L 774.60 605.00 L 774.40 603.90 L 773.90 603.20 L 773.40 603.10 L 772.70 603.40 L 771.90 604.50 L 770.90 608.90 L 771.20 614.20 Z" fill="#ffffff" fill-rule="nonzero" group-id="3" node-id="403" stroke="none" target-height="11.100037" target-width="3.6999512" target-x="770.9" target-y="603.1"></path><path d="M 758.30 622.20 L 761.30 616.50 L 762.20 613.30 L 762.10 612.10 L 761.60 611.40 L 761.10 611.20 L 759.90 612.00 L 759.30 613.10 L 758.20 617.90 L 758.30 622.20 Z" fill="#ffffff" fill-rule="nonzero" group-id="3" node-id="405" stroke="none" target-height="11" target-width="4" target-x="758.2" target-y="611.2"></path><path d="M 745.60 632.60 L 748.60 626.80 L 749.50 623.60 L 749.30 622.40 L 748.80 621.70 L 748.30 621.50 L 747.70 621.80 L 746.80 622.90 L 746.00 625.40 L 745.50 628.30 L 745.60 632.60 Z" fill="#ffffff" fill-rule="nonzero" group-id="3" node-id="407" stroke="none" target-height="11.099976" target-width="4" target-x="745.5" target-y="621.5"></path><path d="M 734.10 642.20 L 737.20 636.50 L 738.10 633.30 L 738.00 632.10 L 737.50 631.40 L 737.00 631.20 L 735.80 632.10 L 735.20 633.20 L 734.60 635.00 L 734.10 637.90 L 734.10 642.20 Z" fill="#ffffff" fill-rule="nonzero" group-id="3" node-id="409" stroke="none" target-height="11" target-width="4" target-x="734.1" target-y="631.2"></path><path d="M 725.40 651.40 L 727.40 645.30 L 727.70 641.90 L 727.40 640.80 L 726.80 640.10 L 726.20 640.00 L 725.20 641.10 L 724.80 642.30 L 724.60 647.20 L 725.40 651.40 Z" fill="#ffffff" fill-rule="nonzero" group-id="3" node-id="411" stroke="none" target-height="11.400024" target-width="3.1000366" target-x="724.6" target-y="640"></path><path d="M 714.50 660.40 L 717.50 654.60 L 718.30 651.40 L 718.10 650.20 L 717.20 649.30 L 716.50 649.60 L 715.70 650.70 L 714.90 653.20 L 714.40 656.10 L 714.50 660.40 Z" fill="#ffffff" fill-rule="nonzero" group-id="3" node-id="413" stroke="none" target-height="11.100037" target-width="3.8999634" target-x="714.4" target-y="649.3"></path><path d="M 704.10 670.70 L 707.00 664.90 L 707.70 661.60 L 707.50 660.40 L 707.00 659.70 L 706.50 659.50 L 705.90 659.80 L 705.10 661.00 L 704.00 665.30 L 704.10 670.70 Z" fill="#ffffff" fill-rule="nonzero" group-id="3" node-id="415" stroke="none" target-height="11.200012" target-width="3.7000122" target-x="704" target-y="659.5"></path><path d="M 693.10 682.20 L 696.30 676.60 L 697.20 673.30 L 697.00 672.10 L 696.50 671.40 L 696.00 671.20 L 695.40 671.50 L 694.50 672.60 L 693.60 675.00 L 693.10 678.00 L 693.10 682.20 Z" fill="#ffffff" fill-rule="nonzero" group-id="3" node-id="417" stroke="none" target-height="11" target-width="4.1000366" target-x="693.1" target-y="671.2"></path><path d="M 683.10 692.40 L 685.90 686.60 L 686.70 683.30 L 686.50 682.10 L 686.00 681.40 L 685.40 681.20 L 684.20 682.20 L 683.70 683.30 L 682.80 688.10 L 683.10 692.40 Z" fill="#ffffff" fill-rule="nonzero" group-id="3" node-id="419" stroke="none" target-height="11.200012" target-width="3.9000244" target-x="682.8" target-y="681.2"></path><path d="M 839.60 587.10 L 846.10 587.10 L 849.30 587.90 L 850.30 588.60 L 850.70 589.40 L 850.60 589.90 L 850.10 590.30 L 848.70 590.60 L 846.20 590.20 L 843.30 589.20 L 839.60 587.10 Z" fill="#ffffff" fill-rule="nonzero" group-id="3" node-id="421" stroke="none" target-height="3.5" target-width="11.100037" target-x="839.6" target-y="587.1"></path><path d="M 822.70 593.30 L 829.20 593.30 L 832.40 594.10 L 833.40 594.80 L 833.80 595.60 L 833.70 596.10 L 833.20 596.50 L 831.80 596.80 L 829.30 596.40 L 826.40 595.40 L 822.70 593.30 Z" fill="#ffffff" fill-rule="nonzero" group-id="3" node-id="423" stroke="none" target-height="3.5" target-width="11.099976" target-x="822.7" target-y="593.3"></path><path d="M 808.60 599.90 L 815.10 599.90 L 818.30 600.70 L 819.30 601.40 L 819.70 602.20 L 819.60 602.70 L 819.00 603.10 L 817.60 603.40 L 815.10 603.00 L 812.30 602.00 L 808.60 599.90 Z" fill="#ffffff" fill-rule="nonzero" group-id="3" node-id="425" stroke="none" target-height="3.5" target-width="11.100037" target-x="808.6" target-y="599.9"></path><path d="M 794.00 607.90 L 800.50 607.90 L 803.70 608.70 L 804.70 609.40 L 805.10 610.20 L 805.00 610.70 L 803.70 611.40 L 802.40 611.40 L 798.80 610.40 L 794.00 607.90 Z" fill="#ffffff" fill-rule="nonzero" group-id="3" node-id="427" stroke="none" target-height="3.5" target-width="11.099976" target-x="794" target-y="607.9"></path><path d="M 782.10 616.50 L 788.60 616.50 L 791.80 617.30 L 792.80 618.00 L 793.10 619.30 L 792.60 619.70 L 791.20 620.00 L 788.70 619.60 L 785.80 618.60 L 782.10 616.50 Z" fill="#ffffff" fill-rule="nonzero" group-id="3" node-id="429" stroke="none" target-height="3.5" target-width="11" target-x="782.1" target-y="616.5"></path><path d="M 770.10 624.80 L 776.60 624.80 L 779.80 625.60 L 780.80 626.30 L 781.20 627.10 L 781.10 627.60 L 780.60 628.00 L 779.20 628.30 L 776.70 627.90 L 773.80 626.90 L 770.10 624.80 Z" fill="#ffffff" fill-rule="nonzero" group-id="3" node-id="431" stroke="none" target-height="3.5" target-width="11.100037" target-x="770.1" target-y="624.8"></path><path d="M 755.00 635.10 L 761.50 635.10 L 764.70 635.90 L 765.70 636.60 L 766.10 637.40 L 766.00 637.90 L 764.70 638.60 L 763.40 638.60 L 759.80 637.60 L 755.00 635.10 Z" fill="#ffffff" fill-rule="nonzero" group-id="3" node-id="433" stroke="none" target-height="3.5" target-width="11.099976" target-x="755" target-y="635.1"></path><path d="M 745.00 644.50 L 751.50 644.50 L 754.70 645.30 L 755.70 646.00 L 756.10 646.80 L 756.00 647.30 L 755.50 647.70 L 754.10 648.00 L 751.60 647.60 L 748.70 646.60 L 745.00 644.50 Z" fill="#ffffff" fill-rule="nonzero" group-id="3" node-id="435" stroke="none" target-height="3.5" target-width="11.099976" target-x="745" target-y="644.5"></path><path d="M 734.90 653.00 L 741.40 653.00 L 744.60 653.80 L 745.60 654.50 L 746.00 655.30 L 745.90 655.80 L 745.40 656.20 L 744.00 656.50 L 741.50 656.10 L 738.60 655.10 L 734.90 653.00 Z" fill="#ffffff" fill-rule="nonzero" group-id="3" node-id="437" stroke="none" target-height="3.5" target-width="11.099976" target-x="734.9" target-y="653"></path><path d="M 723.10 662.70 L 729.60 662.70 L 732.80 663.50 L 733.80 664.20 L 734.20 665.00 L 734.10 665.50 L 733.60 665.90 L 732.20 666.20 L 729.70 665.80 L 726.80 664.80 L 723.10 662.70 Z" fill="#ffffff" fill-rule="nonzero" group-id="3" node-id="439" stroke="none" target-height="3.5" target-width="11.100037" target-x="723.1" target-y="662.7"></path><path d="M 713.70 671.70 L 720.20 671.70 L 723.40 672.50 L 724.40 673.20 L 724.80 674.00 L 724.70 674.50 L 724.20 674.90 L 722.80 675.20 L 720.30 674.80 L 717.40 673.80 L 713.70 671.70 Z" fill="#ffffff" fill-rule="nonzero" group-id="3" node-id="441" stroke="none" target-height="3.5" target-width="11.099976" target-x="713.7" target-y="671.7"></path><path d="M 702.40 682.30 L 708.90 682.30 L 712.10 683.10 L 713.10 683.80 L 713.40 685.10 L 712.90 685.50 L 711.50 685.80 L 709.00 685.40 L 706.10 684.40 L 702.40 682.30 Z" fill="#ffffff" fill-rule="nonzero" group-id="3" node-id="443" stroke="none" target-height="3.5" target-width="11" target-x="702.4" target-y="682.3"></path><path d="M 692.20 691.40 L 698.70 691.40 L 701.90 692.20 L 702.90 692.90 L 703.30 693.70 L 703.20 694.20 L 702.70 694.60 L 701.30 694.90 L 698.80 694.50 L 695.90 693.50 L 692.20 691.40 Z" fill="#ffffff" fill-rule="nonzero" group-id="3" node-id="445" stroke="none" target-height="3.5" target-width="11.099976" target-x="692.2" target-y="691.4"></path></g><g node-id="551"><path d="M 410.70 706.70 L 402.10 685.20 L 385.50 647.20 L 370.30 614.70 L 361.50 596.90 L 352.20 579.00 L 342.10 560.50 L 331.60 542.10 L 320.50 523.80 L 312.80 511.80 L 296.90 488.80 L 288.60 477.80 L 280.30 467.40 L 271.90 457.60 L 258.80 443.80 L 245.70 432.00 L 238.90 426.60 L 232.10 421.90 L 225.50 417.70 L 218.90 414.10 L 213.30 411.60 L 207.80 409.50 L 202.40 407.90 L 197.00 406.70 L 191.60 405.90 L 186.20 405.50 L 180.80 405.70 L 175.30 406.30 L 169.90 407.50 L 164.40 409.20 L 157.30 412.10 L 151.10 415.20 L 145.80 418.50 L 141.20 421.90 L 137.40 425.50 L 133.80 429.60 L 130.90 433.90 L 128.60 438.40 L 126.80 443.10 L 125.70 448.10 L 125.10 453.10 L 124.90 458.30 L 125.30 463.80 L 126.30 469.60 L 127.80 475.70 L 130.30 483.00 L 133.50 490.60 L 137.50 498.70 L 142.50 507.20 L 147.70 515.20 L 153.70 523.60 L 160.50 532.20 L 168.10 541.20 L 184.30 558.50 L 203.30 576.60 L 216.70 588.30 L 231.10 600.10 L 246.60 612.10 L 262.40 623.60 L 279.10 635.00 L 296.60 646.40 L 314.30 657.30 L 332.70 668.00 L 351.70 678.40 L 371.00 688.30 L 390.70 697.70 L 410.70 706.70 Z" fill="url(#SVGID_9_)" fill-rule="nonzero" group-id="4" node-id="450" stroke="none" target-height="301.2" target-width="285.80002" target-x="124.9" target-y="405.5"></path><g node-id="557"><path d="M 378.00 673.10 L 366.30 656.60 L 342.30 624.20 L 317.30 592.50 L 291.10 561.80 L 277.50 546.90 L 263.50 532.40 L 249.00 518.40 L 239.10 509.40 L 228.90 500.70 L 218.40 492.30 L 210.30 486.30 L 193.50 475.40 L 178.70 467.50 L 166.40 462.30 L 153.50 458.40 L 146.90 457.00 L 153.60 457.90 L 160.20 459.20 L 166.80 461.00 L 179.50 465.70 L 185.70 468.50 L 194.80 473.10 L 203.60 478.20 L 212.10 483.70 L 220.50 489.50 L 236.60 502.00 L 251.90 515.30 L 271.40 534.10 L 280.80 543.90 L 294.40 558.90 L 307.60 574.30 L 320.30 590.00 L 332.70 606.10 L 344.60 622.40 L 356.20 639.10 L 363.70 650.30 L 378.00 673.10 Z" fill="#ffffff" fill-rule="nonzero" group-id="4,10" node-id="454" stroke="none" target-height="216.09998" target-width="231.1" target-x="146.9" target-y="457"></path></g><path d="M 206.40 476.20 L 202.50 468.30 L 201.40 463.80 L 201.70 462.20 L 202.40 461.20 L 203.10 461.00 L 204.00 461.40 L 204.70 462.30 L 205.50 463.80 L 206.60 468.80 L 206.40 476.20 Z" fill="#ffffff" fill-rule="nonzero" group-id="4" node-id="457" stroke="none" target-height="15.200012" target-width="5.200012" target-x="201.4" target-y="461"></path><path d="M 220.90 486.40 L 218.90 477.80 L 218.90 473.20 L 219.50 471.70 L 220.40 470.90 L 221.10 470.90 L 221.90 471.50 L 222.40 472.50 L 222.80 474.20 L 222.70 479.30 L 220.90 486.40 Z" fill="#ffffff" fill-rule="nonzero" group-id="4" node-id="459" stroke="none" target-height="15.5" target-width="3.9000092" target-x="218.9" target-y="470.9"></path><path d="M 238.80 499.10 L 235.70 490.90 L 235.10 486.30 L 235.50 484.70 L 236.30 483.80 L 237.00 483.70 L 237.80 484.20 L 238.40 485.10 L 239.00 486.70 L 239.70 491.80 L 238.80 499.10 Z" fill="#ffffff" fill-rule="nonzero" group-id="4" node-id="461" stroke="none" target-height="15.399994" target-width="4.599991" target-x="235.1" target-y="483.7"></path><path d="M 253.80 512.40 L 251.30 503.90 L 251.00 499.30 L 251.50 497.80 L 252.30 497.00 L 253.10 496.90 L 253.80 497.40 L 254.40 498.40 L 254.90 500.10 L 255.20 505.20 L 253.80 512.40 Z" fill="#ffffff" fill-rule="nonzero" group-id="4" node-id="463" stroke="none" target-height="15.5000305" target-width="4.199997" target-x="251" target-y="496.9"></path><path d="M 268.60 527.80 L 266.30 519.30 L 266.10 514.70 L 266.70 513.20 L 267.60 512.40 L 268.30 512.30 L 269.10 512.80 L 269.60 513.80 L 270.10 515.40 L 270.20 520.60 L 268.60 527.80 Z" fill="#ffffff" fill-rule="nonzero" group-id="4" node-id="465" stroke="none" target-height="15.5" target-width="4.100006" target-x="266.1" target-y="512.3"></path><path d="M 284.20 541.40 L 281.40 533.00 L 281.00 528.40 L 281.50 526.90 L 282.30 526.10 L 283.00 526.00 L 283.80 526.50 L 284.40 527.40 L 285.00 529.10 L 285.40 534.20 L 284.20 541.40 Z" fill="#ffffff" fill-rule="nonzero" group-id="4" node-id="467" stroke="none" target-height="15.400024" target-width="4.399994" target-x="281" target-y="526"></path><path d="M 298.70 558.40 L 296.00 550.00 L 295.60 545.40 L 296.10 543.90 L 297.00 543.00 L 297.70 542.90 L 298.50 543.40 L 299.10 544.40 L 299.60 546.00 L 300.00 551.20 L 298.70 558.40 Z" fill="#ffffff" fill-rule="nonzero" group-id="4" node-id="469" stroke="none" target-height="15.5" target-width="4.399994" target-x="295.6" target-y="542.9"></path><path d="M 312.00 574.00 L 309.20 565.60 L 308.70 561.10 L 309.20 559.50 L 310.00 558.70 L 310.70 558.60 L 311.50 559.10 L 312.20 560.00 L 312.70 561.70 L 313.20 566.80 L 312.00 574.00 Z" fill="#ffffff" fill-rule="nonzero" group-id="4" node-id="471" stroke="none" target-height="15.400024" target-width="4.5" target-x="308.7" target-y="558.6"></path><path d="M 321.60 588.40 L 320.30 579.70 L 320.70 575.10 L 321.40 573.60 L 322.40 572.90 L 323.10 572.90 L 323.80 573.50 L 324.20 574.60 L 324.50 576.30 L 324.00 581.40 L 321.60 588.40 Z" fill="#ffffff" fill-rule="nonzero" group-id="4" node-id="473" stroke="none" target-height="15.5" target-width="4.200012" target-x="320.3" target-y="572.9"></path><path d="M 334.10 602.90 L 331.40 594.50 L 331.10 589.90 L 331.60 588.30 L 332.40 587.50 L 333.10 587.40 L 333.90 588.00 L 334.50 589.00 L 335.00 590.60 L 335.40 595.70 L 334.10 602.90 Z" fill="#ffffff" fill-rule="nonzero" group-id="4" node-id="475" stroke="none" target-height="15.5" target-width="4.299988" target-x="331.1" target-y="587.4"></path><path d="M 345.80 619.20 L 343.30 610.70 L 343.10 606.10 L 343.60 604.60 L 344.40 603.80 L 345.20 603.70 L 345.90 604.20 L 346.50 605.20 L 347.00 606.90 L 347.20 612.00 L 345.80 619.20 Z" fill="#ffffff" fill-rule="nonzero" group-id="4" node-id="477" stroke="none" target-height="15.5" target-width="4.100006" target-x="343.1" target-y="603.7"></path><path d="M 357.90 637.30 L 355.00 628.90 L 354.50 624.40 L 354.90 622.80 L 355.70 621.90 L 356.40 621.80 L 357.30 622.30 L 357.90 623.30 L 358.50 624.90 L 359.00 630.00 L 357.90 637.30 Z" fill="#ffffff" fill-rule="nonzero" group-id="4" node-id="479" stroke="none" target-height="15.5" target-width="4.5" target-x="354.5" target-y="621.8"></path><path d="M 369.10 653.40 L 366.60 644.90 L 366.40 640.30 L 367.00 638.80 L 367.80 638.00 L 368.50 637.90 L 369.30 638.40 L 369.90 639.40 L 370.30 641.00 L 370.50 646.20 L 369.10 653.40 Z" fill="#ffffff" fill-rule="nonzero" group-id="4" node-id="481" stroke="none" target-height="15.5" target-width="4.100006" target-x="366.4" target-y="637.9"></path><path d="M 182.90 475.30 L 174.20 473.80 L 169.60 474.20 L 168.10 474.90 L 167.40 475.80 L 167.40 476.60 L 168.00 477.20 L 169.10 477.70 L 170.80 478.00 L 175.90 477.60 L 182.90 475.30 Z" fill="#ffffff" fill-rule="nonzero" group-id="4" node-id="483" stroke="none" target-height="4.200012" target-width="15.5" target-x="167.4" target-y="473.8"></path><path d="M 204.10 487.70 L 195.40 486.20 L 190.80 486.60 L 189.30 487.30 L 188.60 488.30 L 188.60 489.00 L 189.20 489.70 L 190.30 490.10 L 192.00 490.40 L 197.10 490.00 L 204.10 487.70 Z" fill="#ffffff" fill-rule="nonzero" group-id="4" node-id="485" stroke="none" target-height="4.1999817" target-width="15.5" target-x="188.6" target-y="486.2"></path><path d="M 221.70 499.80 L 213.00 498.30 L 208.40 498.70 L 206.90 499.40 L 206.20 500.40 L 206.20 501.10 L 206.80 501.80 L 207.90 502.20 L 209.60 502.50 L 214.70 502.10 L 221.70 499.80 Z" fill="#ffffff" fill-rule="nonzero" group-id="4" node-id="487" stroke="none" target-height="4.200012" target-width="15.5" target-x="206.2" target-y="498.3"></path><path d="M 239.40 514.00 L 230.70 512.50 L 226.10 512.90 L 224.60 513.60 L 223.90 514.60 L 223.90 515.30 L 224.50 516.00 L 225.60 516.40 L 227.30 516.70 L 232.40 516.30 L 239.40 514.00 Z" fill="#ffffff" fill-rule="nonzero" group-id="4" node-id="489" stroke="none" target-height="4.200012" target-width="15.5" target-x="223.9" target-y="512.5"></path><path d="M 253.40 528.20 L 244.70 526.70 L 240.10 527.10 L 238.60 527.80 L 237.90 528.70 L 237.90 529.50 L 238.50 530.10 L 239.60 530.60 L 241.30 530.90 L 246.40 530.50 L 253.40 528.20 Z" fill="#ffffff" fill-rule="nonzero" group-id="4" node-id="491" stroke="none" target-height="4.200012" target-width="15.5" target-x="237.9" target-y="526.7"></path><path d="M 267.60 542.20 L 258.90 540.70 L 254.30 541.10 L 252.80 541.80 L 252.10 542.80 L 252.10 543.50 L 252.70 544.20 L 253.80 544.60 L 255.50 544.90 L 260.60 544.50 L 267.60 542.20 Z" fill="#ffffff" fill-rule="nonzero" group-id="4" node-id="493" stroke="none" target-height="4.200012" target-width="15.5" target-x="252.1" target-y="540.7"></path><path d="M 285.50 559.60 L 276.80 558.10 L 272.20 558.50 L 270.70 559.20 L 270.00 560.20 L 270.00 560.90 L 270.60 561.60 L 271.70 562.00 L 273.40 562.30 L 278.50 561.90 L 285.50 559.60 Z" fill="#ffffff" fill-rule="nonzero" group-id="4" node-id="495" stroke="none" target-height="4.200012" target-width="15.5" target-x="270" target-y="558.1"></path><path d="M 296.80 574.50 L 288.10 573.00 L 283.50 573.40 L 282.00 574.10 L 281.30 575.10 L 281.30 575.80 L 281.90 576.50 L 283.00 576.90 L 284.70 577.20 L 289.80 576.80 L 296.80 574.50 Z" fill="#ffffff" fill-rule="nonzero" group-id="4" node-id="497" stroke="none" target-height="4.200012" target-width="15.5" target-x="281.3" target-y="573"></path><path d="M 308.40 588.20 L 299.70 586.70 L 295.10 587.10 L 293.60 587.80 L 292.90 588.70 L 292.90 589.40 L 293.60 590.10 L 294.60 590.60 L 296.30 590.90 L 301.40 590.50 L 308.40 588.20 Z" fill="#ffffff" fill-rule="nonzero" group-id="4" node-id="499" stroke="none" target-height="4.200012" target-width="15.5" target-x="292.9" target-y="586.7"></path><path d="M 322.10 604.10 L 313.40 602.60 L 308.80 603.00 L 307.30 603.70 L 306.60 604.60 L 306.60 605.40 L 307.20 606.00 L 308.30 606.50 L 310.00 606.80 L 315.10 606.40 L 322.10 604.10 Z" fill="#ffffff" fill-rule="nonzero" group-id="4" node-id="501" stroke="none" target-height="4.200012" target-width="15.5" target-x="306.6" target-y="602.6"></path><path d="M 332.60 618.40 L 323.90 616.90 L 319.30 617.30 L 317.80 618.00 L 317.10 618.90 L 317.10 619.70 L 317.70 620.30 L 318.80 620.80 L 320.50 621.10 L 325.60 620.70 L 332.60 618.40 Z" fill="#ffffff" fill-rule="nonzero" group-id="4" node-id="503" stroke="none" target-height="4.199951" target-width="15.5" target-x="317.1" target-y="616.9"></path><path d="M 345.40 635.20 L 336.70 633.70 L 332.10 634.10 L 330.60 634.80 L 329.90 635.70 L 329.90 636.50 L 330.50 637.10 L 331.60 637.60 L 333.30 637.90 L 338.40 637.50 L 345.40 635.20 Z" fill="#ffffff" fill-rule="nonzero" group-id="4" node-id="505" stroke="none" target-height="4.200012" target-width="15.5" target-x="329.9" target-y="633.7"></path><path d="M 357.00 649.80 L 348.30 648.30 L 343.70 648.70 L 342.20 649.40 L 341.50 650.40 L 341.50 651.10 L 342.10 651.80 L 343.20 652.20 L 344.90 652.50 L 350.00 652.10 L 357.00 649.80 Z" fill="#ffffff" fill-rule="nonzero" group-id="4" node-id="507" stroke="none" target-height="4.200012" target-width="15.5" target-x="341.5" target-y="648.3"></path></g><g node-id="552"><path d="M 532.40 805.40 L 528.60 805.10 L 524.80 804.10 L 511.60 798.70 L 498.70 792.90 L 486.20 786.60 L 474.10 779.80 L 462.30 772.60 L 450.80 764.80 L 439.60 756.70 L 428.90 748.10 L 418.60 739.20 L 408.60 729.80 L 399.00 720.00 L 389.80 709.90 L 381.10 699.40 L 372.80 688.60 L 365.00 677.50 L 357.50 666.10 L 350.60 654.30 L 344.10 642.40 L 338.20 630.10 L 332.60 617.60 L 327.60 604.90 L 323.20 591.90 L 319.20 578.80 L 315.80 565.50 L 312.90 551.90 L 310.50 538.20 L 308.80 524.50 L 307.60 510.50 L 306.90 496.50 L 306.90 482.20 L 306.90 361.50 L 307.10 358.30 L 307.80 355.40 L 308.80 352.50 L 310.30 349.90 L 312.10 347.50 L 314.20 345.30 L 316.50 343.40 L 319.20 342.00 L 357.10 329.20 L 374.30 322.70 L 391.30 315.80 L 408.10 308.40 L 424.80 300.70 L 441.30 292.50 L 457.50 283.90 L 473.50 274.80 L 489.30 265.40 L 522.80 243.80 L 525.40 242.70 L 531.00 241.50 L 536.70 241.90 L 542.10 243.80 L 575.60 265.40 L 591.40 274.80 L 607.40 283.90 L 623.60 292.50 L 640.10 300.70 L 656.80 308.40 L 673.60 315.80 L 690.60 322.70 L 707.80 329.20 L 745.80 341.90 L 748.40 343.40 L 750.80 345.20 L 752.90 347.40 L 754.70 349.80 L 756.20 352.50 L 757.20 355.30 L 757.90 358.30 L 758.10 361.50 L 758.10 496.60 L 757.40 510.70 L 756.20 524.60 L 754.50 538.30 L 752.10 551.90 L 749.20 565.50 L 745.80 578.80 L 741.90 591.90 L 737.40 604.80 L 732.40 617.60 L 726.90 630.10 L 720.90 642.30 L 714.40 654.30 L 707.50 666.00 L 700.10 677.40 L 692.20 688.60 L 683.90 699.30 L 675.20 709.80 L 666.10 719.90 L 656.50 729.70 L 646.50 739.10 L 636.20 748.00 L 625.50 756.60 L 614.30 764.70 L 602.80 772.50 L 591.00 779.70 L 578.90 786.50 L 566.40 792.70 L 553.50 798.60 L 540.30 803.90 L 536.40 804.90 L 532.40 805.40 Z" fill="#ffffff" fill-rule="nonzero" group-id="5" node-id="512" stroke="none" target-height="563.9" target-width="451.19998" target-x="306.9" target-y="241.5"></path><path d="M 395.60 525.00 L 495.20 640.10 L 496.50 641.30 L 499.40 643.00 L 501.90 643.40 L 504.40 643.30 L 506.00 642.90 L 507.50 642.10 L 509.80 640.30 L 692.00 443.10 L 693.40 441.10 L 694.30 438.90 L 694.50 436.50 L 694.30 434.10 L 693.40 431.90 L 692.00 429.90 L 690.10 428.30 L 687.90 427.30 L 685.50 426.80 L 683.20 427.00 L 680.90 427.60 L 678.80 428.90 L 507.80 567.30 L 506.00 568.50 L 504.20 569.20 L 502.20 569.50 L 500.10 569.40 L 498.20 568.90 L 496.30 567.90 L 408.30 510.60 L 406.10 509.60 L 403.90 509.10 L 401.70 509.10 L 399.40 509.70 L 397.40 510.70 L 395.60 512.30 L 394.30 514.30 L 393.50 516.40 L 393.20 518.70 L 393.50 520.90 L 394.30 523.10 L 395.60 525.00 Z" fill="url(#SVGID_10_)" fill-rule="nonzero" group-id="5" node-id="514" stroke="none" target-height="216.60004" target-width="301.3" target-x="393.2" target-y="426.8"></path></g><g node-id="553"><path d="M 793.60 651.70 L 793.30 659.60 L 792.30 667.30 L 790.80 674.60 L 788.70 681.80 L 786.10 688.80 L 782.90 695.50 L 779.30 701.90 L 775.20 708.00 L 770.60 713.70 L 765.70 719.10 L 760.30 724.00 L 754.60 728.60 L 748.50 732.70 L 742.10 736.30 L 735.40 739.50 L 728.40 742.10 L 721.20 744.20 L 713.90 745.70 L 706.20 746.70 L 698.30 747.00 L 690.40 746.70 L 682.70 745.70 L 675.40 744.20 L 668.20 742.10 L 661.20 739.50 L 654.50 736.30 L 648.10 732.70 L 642.00 728.60 L 636.30 724.00 L 630.90 719.10 L 626.00 713.70 L 621.40 708.00 L 617.30 701.90 L 613.70 695.50 L 610.50 688.80 L 607.90 681.80 L 605.80 674.60 L 604.30 667.30 L 603.30 659.60 L 603.00 651.70 L 603.30 643.80 L 604.30 636.10 L 605.80 628.80 L 607.90 621.60 L 610.50 614.60 L 613.70 607.90 L 617.30 601.50 L 621.40 595.40 L 626.00 589.70 L 630.90 584.30 L 636.30 579.40 L 642.00 574.80 L 648.10 570.70 L 654.50 567.10 L 661.20 563.90 L 668.20 561.30 L 675.40 559.20 L 682.70 557.70 L 690.40 556.70 L 698.30 556.40 L 706.20 556.70 L 713.90 557.70 L 721.20 559.20 L 728.40 561.30 L 735.40 563.90 L 742.10 567.10 L 748.50 570.70 L 754.60 574.80 L 760.30 579.40 L 765.70 584.30 L 770.60 589.70 L 775.20 595.40 L 779.30 601.50 L 782.90 607.90 L 786.10 614.60 L 788.70 621.60 L 790.80 628.80 L 792.30 636.10 L 793.30 643.80 L 793.60 651.70 Z" fill="none" group-id="6" node-id="519" stroke="#21b9ff" stroke-linecap="butt" stroke-width="38.1165" target-height="190.59998" target-width="190.59998" target-x="603" target-y="556.4"></path><path d="M 820.90 774.30 L 818.20 776.50 L 815.40 778.10 L 812.30 779.20 L 809.00 779.80 L 805.80 779.80 L 802.60 779.20 L 799.50 778.10 L 796.60 776.50 L 793.90 774.30 L 753.50 733.90 L 751.30 731.20 L 749.70 728.40 L 748.60 725.30 L 748.00 722.00 L 748.00 718.80 L 748.60 715.60 L 749.70 712.50 L 751.30 709.60 L 753.50 706.90 L 756.20 704.70 L 759.00 703.10 L 762.10 702.00 L 765.40 701.40 L 768.60 701.40 L 771.80 702.00 L 774.90 703.10 L 777.80 704.70 L 780.50 706.90 L 820.90 747.30 L 823.10 750.00 L 824.80 752.90 L 825.90 756.00 L 826.50 759.20 L 826.50 762.40 L 825.90 765.70 L 824.80 768.80 L 823.10 771.60 L 820.90 774.30 Z" fill="#21b9ff" fill-rule="nonzero" group-id="6" node-id="521" stroke="none" target-height="78.39996" target-width="78.5" target-x="748" target-y="701.4"></path></g><path d="M 532.30 975.50 L 489.90 978.10 L 468.90 978.80 L 435.60 978.80 L 411.60 977.50 L 400.00 976.30 L 389.60 974.80 L 380.40 973.00 L 373.40 971.20 L 367.30 969.20 L 362.10 967.10 L 357.70 964.80 L 354.10 962.60 L 351.30 960.20 L 348.90 957.70 L 347.10 955.10 L 345.80 952.40 L 345.30 950.30 L 345.40 948.00 L 346.20 945.50 L 347.70 942.70 L 350.20 939.60 L 353.40 936.20 L 357.80 932.50 L 363.30 928.40 L 370.40 923.80 L 379.60 918.30 L 390.80 912.30 L 404.00 905.70 L 432.10 892.90 L 474.00 875.60 L 502.10 864.80 L 561.90 843.00 L 625.80 821.00 L 724.10 789.00 L 818.10 759.90 L 874.70 742.80 L 962.30 717.20 L 965.60 716.00 L 968.50 714.50 L 971.00 712.70 L 975.40 708.20 L 978.40 703.00 L 980.10 697.10 L 980.30 691.00 L 979.90 687.90 L 979.00 684.90 L 977.80 682.00 L 976.10 679.20 L 972.30 674.60" fill="none" node-id="524" stroke="url(#SVGID_11_)" stroke-linecap="round" stroke-width="11.6933" target-height="304.2" target-width="635" target-x="345.3" target-y="674.6"></path><path d="M 873.20 261.70 L 873.00 264.30 L 872.30 266.60 L 871.30 268.80 L 869.90 270.70 L 868.20 272.40 L 866.30 273.80 L 864.10 274.80 L 861.80 275.50 L 859.20 275.70 L 856.60 275.50 L 854.30 274.80 L 852.10 273.80 L 850.20 272.40 L 848.50 270.70 L 847.10 268.80 L 846.10 266.60 L 845.40 264.30 L 845.20 261.70 L 845.40 259.10 L 846.10 256.80 L 847.10 254.60 L 848.50 252.70 L 850.20 251.00 L 852.10 249.60 L 854.30 248.60 L 856.60 247.90 L 859.20 247.70 L 861.80 247.90 L 864.10 248.60 L 866.30 249.60 L 868.20 251.00 L 869.90 252.70 L 871.30 254.60 L 872.30 256.80 L 873.00 259.10 L 873.20 261.70 Z" fill="url(#SVGID_12_)" fill-rule="nonzero" node-id="526" stroke="none" target-height="28.000015" target-width="28" target-x="845.2" target-y="247.7"></path><path d="M 49.10 473.50 L 48.90 476.00 L 48.20 478.40 L 47.20 480.50 L 45.80 482.50 L 44.20 484.10 L 42.20 485.50 L 40.10 486.50 L 37.70 487.20 L 35.20 487.40 L 32.70 487.20 L 30.30 486.50 L 28.20 485.50 L 26.20 484.10 L 23.20 480.50 L 22.20 478.40 L 21.50 476.00 L 21.30 473.50 L 21.50 471.00 L 22.20 468.60 L 23.20 466.50 L 24.60 464.50 L 28.20 461.50 L 30.30 460.50 L 32.70 459.80 L 35.20 459.60 L 37.70 459.80 L 40.10 460.50 L 42.20 461.50 L 45.80 464.50 L 47.20 466.50 L 48.20 468.60 L 48.90 471.00 L 49.10 473.50 Z" fill="url(#SVGID_13_)" fill-rule="nonzero" node-id="528" stroke="none" target-height="27.799988" target-width="27.8" target-x="21.3" target-y="459.6"></path><path d="M 213.60 221.70 L 213.30 224.50 L 212.60 227.00 L 211.50 229.40 L 210.00 231.50 L 208.20 233.30 L 206.10 234.80 L 203.70 235.90 L 201.20 236.60 L 198.40 236.90 L 195.60 236.60 L 193.10 235.90 L 190.70 234.80 L 188.60 233.30 L 186.80 231.50 L 185.30 229.40 L 184.20 227.00 L 183.50 224.50 L 183.20 221.70 L 183.50 218.90 L 184.20 216.40 L 185.30 214.00 L 186.80 211.90 L 188.60 210.10 L 190.70 208.60 L 193.10 207.50 L 195.60 206.80 L 198.40 206.50 L 201.20 206.80 L 203.70 207.50 L 206.10 208.60 L 208.20 210.10 L 210.00 211.90 L 211.50 214.00 L 212.60 216.40 L 213.30 218.90 L 213.60 221.70 Z" fill="url(#SVGID_14_)" fill-rule="nonzero" node-id="530" stroke="none" target-height="30.399994" target-width="30.40001" target-x="183.2" target-y="206.5"></path><path d="M 917.70 336.10 L 917.40 340.10 L 916.70 343.90 L 915.40 347.50 L 913.70 351.00 L 911.60 354.30 L 908.90 357.20 L 906.00 359.90 L 902.70 362.00 L 899.20 363.70 L 895.60 365.00 L 891.80 365.70 L 887.80 366.00 L 883.80 365.70 L 880.00 365.00 L 876.40 363.70 L 872.90 362.00 L 869.60 359.90 L 866.70 357.20 L 864.00 354.30 L 861.90 351.00 L 860.20 347.50 L 858.90 343.90 L 858.20 340.10 L 857.90 336.10 L 858.20 332.10 L 858.90 328.30 L 860.20 324.70 L 861.90 321.20 L 864.00 317.90 L 866.70 315.00 L 869.60 312.30 L 872.90 310.20 L 876.40 308.50 L 880.00 307.20 L 883.80 306.50 L 887.80 306.20 L 891.80 306.50 L 895.60 307.20 L 899.20 308.50 L 902.70 310.20 L 906.00 312.30 L 908.90 315.00 L 911.60 317.90 L 913.70 321.20 L 915.40 324.70 L 916.70 328.30 L 917.40 332.10 L 917.70 336.10 Z" fill="url(#SVGID_15_)" fill-rule="nonzero" node-id="532" stroke="none" target-height="59.799988" target-width="59.799988" target-x="857.9" target-y="306.2"></path><path d="M 653.80 59.80 L 665.60 58.10 L 677.70 57.50 L 684.50 57.80 L 691.60 58.60 L 696.30 59.50 L 705.50 62.40 L 709.90 64.40 L 713.90 67.00 L 717.70 70.00 L 720.30 72.60 L 722.50 75.50 L 724.60 78.80 L 726.40 82.50 L 727.30 85.40 L 727.80 88.30 L 727.80 91.20 L 727.30 94.30 L 726.40 97.40 L 724.90 100.70 L 720.00 107.90 L 716.60 111.80 L 712.40 116.00 L 707.30 120.50 L 693.90 130.70 L 685.60 136.20 L 663.50 149.50 L 649.30 157.40 L 608.90 178.20 L 459.20 250.80 L 426.60 267.20 L 393.40 284.40 L 349.30 308.50 L 327.40 321.10 L 305.70 334.00 L 284.40 347.30 L 263.60 361.00 L 233.10 382.20 L 204.20 404.20 L 190.10 415.70 L 176.70 427.30 L 163.80 439.10 L 151.50 451.10 L 141.80 461.00 L 132.60 471.00 L 123.90 481.10 L 115.60 491.40 L 107.70 501.70 L 101.70 510.40 L 96.20 519.20 L 91.30 528.00 L 86.90 537.00 L 83.10 546.00 L 79.70 555.30 L 76.80 564.70 L 74.40 574.00 L 72.50 583.40 L 71.00 592.80 L 70.10 602.30 L 69.60 611.80 L 69.60 621.20 L 70.10 630.60 L 71.00 640.00 L 72.40 649.30 L 74.30 658.50 L 76.50 667.60 L 79.30 676.60 L 82.40 685.50 L 86.00 694.20 L 90.00 702.80 L 94.50 711.10 L 99.40 719.30 L 104.70 727.40 L 110.40 735.10 L 116.40 742.60 L 122.90 749.80 L 129.80 756.80 L 137.20 763.50 L 144.80 769.90 L 152.80 775.90 L 161.20 781.60 L 170.10 786.90 L 179.40 792.00" fill="none" node-id="534" stroke="url(#SVGID_16_)" stroke-linecap="round" stroke-width="16.7048" target-height="734.5" target-width="658.2" target-x="69.6" target-y="57.5"></path><path d="M 608.20 246.90 L 607.40 251.20 L 605.30 254.80 L 602.10 257.50 L 600.20 258.40 L 595.90 259.20 L 591.60 258.40 L 588.00 256.30 L 585.30 253.10 L 584.40 251.20 L 583.60 246.90 L 584.40 242.60 L 586.50 239.00 L 589.70 236.30 L 591.60 235.40 L 595.90 234.60 L 600.20 235.40 L 603.80 237.50 L 606.50 240.70 L 607.40 242.60 L 608.20 246.90 Z" fill="url(#SVGID_17_)" fill-rule="nonzero" node-id="536" stroke="none" target-height="24.600006" target-width="24.600037" target-x="583.6" target-y="234.6"></path><path d="M 257.30 645.90 L 256.60 650.00 L 255.70 651.90 L 253.10 654.90 L 249.60 657.00 L 245.50 657.70 L 241.40 657.00 L 237.90 654.90 L 235.30 651.90 L 233.90 648.10 L 233.70 645.90 L 233.90 643.70 L 234.40 641.80 L 236.50 638.30 L 239.50 635.70 L 241.40 634.80 L 245.50 634.10 L 249.60 634.80 L 253.10 636.90 L 255.70 639.90 L 256.60 641.80 L 257.30 645.90 Z" fill="url(#SVGID_18_)" fill-rule="nonzero" node-id="538" stroke="none" target-height="23.600037" target-width="23.59999" target-x="233.7" target-y="634.1"></path><path d="M 332.00 671.20 L 331.80 672.40 L 330.70 674.40 L 328.70 675.50 L 327.50 675.70 L 325.20 675.10 L 323.60 673.50 L 323.20 672.40 L 323.00 671.20 L 323.60 668.90 L 325.20 667.30 L 327.50 666.70 L 328.70 666.90 L 330.70 668.00 L 331.80 670.00 L 332.00 671.20 Z" fill="url(#SVGID_19_)" fill-rule="nonzero" node-id="540" stroke="none" target-height="9" target-width="9" target-x="323" target-y="666.7"></path><path d="M 372.10 287.00 L 371.90 288.80 L 371.20 290.30 L 370.10 291.70 L 368.70 292.80 L 367.20 293.50 L 365.40 293.70 L 363.60 293.50 L 362.10 292.80 L 360.70 291.70 L 359.60 290.30 L 358.90 288.80 L 358.70 287.00 L 358.90 285.20 L 359.60 283.70 L 360.70 282.30 L 362.10 281.20 L 363.60 280.50 L 365.40 280.30 L 367.20 280.50 L 368.70 281.20 L 370.10 282.30 L 371.20 283.70 L 371.90 285.20 L 372.10 287.00 Z" fill="url(#SVGID_20_)" fill-rule="nonzero" node-id="542" stroke="none" target-height="13.400024" target-width="13.399994" target-x="358.7" target-y="280.3"></path><path d="M 703.80 75.40 L 688.30 69.80 L 672.50 64.70 L 656.50 60.20 L 640.30 56.30 L 623.70 52.90 L 607.10 50.10 L 590.30 47.90 L 573.20 46.30 L 556.00 45.30 L 538.40 45.00 L 520.80 45.30 L 503.50 46.30 L 486.50 47.90 L 469.70 50.10 L 453.10 52.90 L 436.50 56.30 L 420.20 60.20 L 404.20 64.70 L 388.40 69.80 L 372.90 75.40 L 703.80 75.40 Z" fill="url(#SVGID_21_)" fill-rule="nonzero" node-id="544" stroke="none" target-height="30.400002" target-width="330.9" target-x="372.9" target-y="45"></path><path d="M 1002.80 509.40 L 1002.60 524.20 L 1001.90 538.90 L 1000.70 553.50 L 999.10 568.00 L 997.00 582.50 L 994.50 596.90 L 991.50 611.10 L 988.10 625.30 L 984.30 639.20 L 980.00 653.10 L 975.30 666.90 L 970.20 680.40 L 964.60 693.80 L 958.70 707.00 L 952.30 720.00 L 945.50 732.90 L 938.30 745.50 L 930.70 757.90 L 922.80 770.00 L 914.40 782.00 L 905.60 793.70 L 896.50 805.10 L 887.00 816.20 L 877.10 827.10 L 866.80 837.80 L 856.10 848.10 L 845.20 858.00 L 834.10 867.50 L 822.70 876.60 L 811.00 885.40 L 799.00 893.80 L 786.90 901.70 L 774.50 909.30 L 761.90 916.50 L 749.00 923.30 L 736.00 929.70 L 722.80 935.60 L 709.40 941.20 L 695.90 946.30 L 682.10 951.00 L 668.20 955.30 L 654.30 959.10 L 640.10 962.50 L 625.90 965.50 L 611.50 968.00 L 597.00 970.10 L 582.50 971.70 L 567.90 972.90 L 553.20 973.60 L 538.40 973.80 L 523.60 973.60 L 508.90 972.90 L 494.30 971.70 L 479.80 970.10 L 465.30 968.00 L 450.90 965.50 L 436.70 962.50 L 422.50 959.10 L 408.60 955.30 L 394.70 951.00 L 380.90 946.30 L 367.40 941.20 L 354.00 935.60 L 340.80 929.70 L 327.80 923.30 L 314.90 916.50 L 302.30 909.30 L 289.90 901.70 L 277.80 893.80 L 265.80 885.40 L 254.10 876.60 L 242.70 867.50 L 231.60 858.00 L 220.70 848.10 L 210.00 837.80 L 199.70 827.10 L 189.80 816.20 L 180.30 805.10 L 171.20 793.70 L 162.40 782.00 L 154.00 770.00 L 146.10 757.90 L 138.50 745.50 L 131.30 732.90 L 124.50 720.00 L 118.10 707.00 L 112.20 693.80 L 106.60 680.40 L 101.50 666.90 L 96.80 653.10 L 92.50 639.20 L 88.70 625.30 L 85.30 611.10 L 82.30 596.90 L 79.80 582.50 L 77.70 568.00 L 76.10 553.50 L 74.90 538.90 L 74.20 524.20 L 74.00 509.40 L 74.20 494.60 L 74.90 479.90 L 76.10 465.30 L 77.70 450.80 L 79.80 436.30 L 82.30 421.90 L 85.30 407.70 L 88.70 393.50 L 92.50 379.60 L 96.80 365.70 L 101.50 351.90 L 106.60 338.40 L 112.20 325.00 L 118.10 311.80 L 124.50 298.80 L 131.30 285.90 L 138.50 273.30 L 146.10 260.90 L 154.00 248.80 L 162.40 236.80 L 171.20 225.10 L 180.30 213.70 L 189.80 202.60 L 199.70 191.70 L 210.00 181.00 L 220.70 170.70 L 231.60 160.80 L 242.70 151.30 L 254.10 142.20 L 265.80 133.40 L 277.80 125.00 L 289.90 117.10 L 302.30 109.50 L 314.90 102.30 L 327.80 95.50 L 340.80 89.10 L 354.00 83.20 L 367.40 77.60 L 380.90 72.50 L 394.70 67.80 L 408.60 63.50 L 422.50 59.70 L 436.70 56.30 L 450.90 53.30 L 465.30 50.80 L 479.80 48.70 L 494.30 47.10 L 508.90 45.90 L 523.60 45.20 L 538.40 45.00 L 553.20 45.20 L 567.90 45.90 L 582.50 47.10 L 597.00 48.70 L 611.50 50.80 L 625.90 53.30 L 640.10 56.30 L 654.30 59.70 L 668.20 63.50 L 682.10 67.80 L 695.90 72.50 L 709.40 77.60 L 722.80 83.20 L 736.00 89.10 L 749.00 95.50 L 761.90 102.30 L 774.50 109.50 L 786.90 117.10 L 799.00 125.00 L 811.00 133.40 L 822.70 142.20 L 834.10 151.30 L 845.20 160.80 L 856.10 170.70 L 866.80 181.00 L 877.10 191.70 L 887.00 202.60 L 896.50 213.70 L 905.60 225.10 L 914.40 236.80 L 922.80 248.80 L 930.70 260.90 L 938.30 273.30 L 945.50 285.90 L 952.30 298.80 L 958.70 311.80 L 964.60 325.00 L 970.20 338.40 L 975.30 351.90 L 980.00 365.70 L 984.30 379.60 L 988.10 393.50 L 991.50 407.70 L 994.50 421.90 L 997.00 436.30 L 999.10 450.80 L 1000.70 465.30 L 1001.90 479.90 L 1002.60 494.60 L 1002.80 509.40 Z" fill="none" node-id="546" stroke="none" target-height="928.8" target-width="928.8" target-x="74" target-y="45"></path></svg>